<?xml version="1.0" encoding="UTF-8"?>
<svg width="900px" height="824px" viewBox="0 0 900 824" version="1.1" xmlns="http://www.w3.org/2000/svg" xmlns:xlink="http://www.w3.org/1999/xlink">
    <!-- Generator: Sketch 52.6 (67491) - http://www.bohemiancoding.com/sketch -->
    <title>Background</title>
    <desc>Created with Sketch.</desc>
    <g id="Page-1" stroke="none" stroke-width="1" fill="none" fill-rule="evenodd">
        <g id="Desktop-HD" transform="translate(-540.000000, -885.000000)">
            <g id="Section1" transform="translate(185.000000, 885.000000)">
                <g id="Background" transform="translate(344.000000, 0.000000)">
                    <g id="Fill-1">
                        <polygon fill="#F0ECE3" points="624.32068 -235 623.088467 -234.117449 619.669916 -232.486648 612.823224 -230.692766 607.793687 -231.316308 607.08888 -231.196396 606.211468 -230.716749 591.808484 -226.011408 578.340448 -224.313456 575.458892 -222.610708 573.972565 -222.917682 557.886676 -215.866865 555.297591 -213.43985 552.852344 -210.053539 551.457115 -208.6098 549.860512 -207.995852 548.110483 -207.837568 547.396087 -207.544983 545.343997 -205.894996 545.372765 -205.237879 545.55496 -203.38644 546.916627 -198.50363 547.448828 -195.467462 546.99334 -192.949313 546.039215 -191.006741 544.260417 -185.759398 543.848081 -183.40433 543.886438 -180.675136 544.76385 -175.020093 545.118651 -168.847031 545.578933 -167.009982 547.846779 -163.494166 545.243311 -161.522816 544.811796 -156.155561 544.744672 -149.977703 543.224783 -145.540964 543.224783 -144.634431 547.846779 -140.955535 547.846779 -140.144931 544.639191 -140.830827 542.90834 -137.300622 542.198738 -132.192377 542.06449 -127.981073 542.874777 -126.89707 546.465934 -125.15595 547.281016 -123.477184 547.818012 -122.009463 549.131733 -120.973425 550.809843 -120.412237 552.440008 -120.388255 552.440008 -119.404978 550.718746 -119.404978 551.179028 -118.416904 551.620131 -117.826938 552.190689 -117.630283 553.058512 -117.697433 553.058512 -116.786103 552.363294 -116.105004 551.538623 -116.033057 543.224783 -120.09567 540.333638 -119.707156 537.48085 -115.831605 535.601366 -108.919886 534.886971 -107.802307 533.894488 -106.962925 529.454687 -101.499741 518.513405 -92.6502463 515.166773 -88.932979 513.148246 -88.2183044 511.100951 -86.6018927 476.546255 -75.402126 469.315995 -75.5076484 462.75698 -73.0998185 459.458294 -70.8454758 456.557559 -69.9581281 446.042997 -63.6555613 445.194353 -62.4372569 434.229098 -57.3434016 433.385248 -56.528001 432.479069 -56.5184081 428.278997 -53.1129116 427.022812 -51.6308011 423.661796 -40.2295826 419.356243 -32.3249935 419.09254 -31.3609023 419.001443 -29.9699248 419.26994 -28.8859217 420.454207 -28.0657247 420.713116 -27.2743065 421.427511 -26.0416127 423.105622 -25.0247602 425.028257 -24.3964221 426.509789 -24.2908997 428.216668 -24.2908997 434.229098 -22.2428053 441.171682 -21.278714 448.099882 -22.2955665 454.059572 -26.0416127 452.664343 -24.1182266 451.058151 -22.6744879 447.193702 -20.6983407 426.298827 -15.9306456 420.713116 -11.9112004 418.718561 -8.74073114 417.965809 -8.13157895 416.047968 -7.61835624 413.751354 -5.57985481 409.829369 -3.72841587 396.380511 -0.509981851 394.246913 1.4134042 386.383766 -3.34469795 382.174106 -4.34236453 379.623377 -6.01153746 378.151435 -6.64467202 372.417091 -6.64467202 368.801961 -8.2323049 366.754666 -8.72154524 363.690915 -7.01879699 361.634031 -7.22504537 358.03808 -8.30904848 343.649479 -9.18200674 333.715064 -13 322.653918 -13.5755769 321.201153 -12.899274 319.79154 -11.350013 319.168242 -9.58011408 320.050449 -8.30904848 320.050449 -7.43609023 318.410695 -6.96603578 317.523694 -7.50324086 316.876422 -8.40977444 315.984626 -9.18200674 315.044885 -9.04770547 314.138705 -8.45773918 313.443487 -8.36660617 313.17499 -9.65685766 313.347595 -10.054965 313.71678 -10.7120819 314.100348 -11.7097485 314.268159 -13.1247083 313.980483 -15.9306456 313.170195 -17.8876069 306.774196 -25.984055 305.513216 -29.5430386 304.070041 -31.8213638 303.010434 -34.3730879 303.432359 -37.4188488 303.96456 -38.0759658 304.698134 -38.3253824 306.558439 -38.3829401 306.894061 -38.9393311 307.105024 -40.143246 307.469414 -41.3663469 309.598217 -42.8820327 309.233827 -45.1363754 307.383111 -49.0598911 306.985159 -51.2231009 306.654331 -52.1344309 305.954319 -52.5037594 295.876066 -54.3551983 294.346588 -54.2161006 290.477344 -52.9882033 289.254721 -52.0480944 287.09715 -49.1174488 285.778635 -47.8799585 284.359432 -47.2132486 283.357361 -47.246824 281.621715 -47.9279233 280.634027 -48.0718175 279.727847 -47.7984185 278.572348 -46.5321493 277.795622 -46.2491574 277.186708 -46.5321493 276.990129 -47.155691 276.951772 -47.7984185 276.91821 -48.0718175 275.575722 -47.9950739 269.309177 -50.1582836 263.742644 -50.9928701 261.911106 -51.6308011 261.493976 -51.6739694 260.568618 -51.5012963 260.18505 -51.6308011 259.82066 -52.2303604 259.504216 -53.8036038 259.09188 -54.3551983 258.262414 -54.7149339 255.913059 -54.3551983 254.930166 -54.6333938 253.266439 -55.8516982 252.470535 -56.1298937 250.212278 -55.8277158 249.843093 -54.8396422 250.010904 -52.9210526 249.349249 -49.8513093 253.026709 -48.2780659 255.735659 -47.7552502 256.483617 -46.8583096 256.953488 -45.5920404 257.629527 -44.1483018 258.24803 -42.3208452 258.276798 -40.1720249 257.89323 -36.1285974 257.356235 -34.8335494 254.982907 -32.6559502 254.450706 -30.8572725 254.896604 -30.0898367 257.073353 -27.4325901 257.89323 -26.0416127 258.200084 -25.053539 258.24803 -24.3676432 258.37269 -23.7584911 259.590519 -21.5089448 259.940525 -20.6983407 260.18505 -19.8061965 260.242585 -17.9547576 259.926141 -13.5755769 260.18505 -11.9112004 260.985748 -10.9902774 261.983025 -11.0957998 263.090578 -11.6042261 264.246077 -11.9112004 263.996758 -11.4027742 263.848125 -11.0286492 263.622779 -10.1365051 265.276917 -9.13883848 267.16599 -7.07155821 268.719441 -6.08828105 269.400274 -8.30904848 270.033162 -8.30904848 271.126331 -5.67578429 271.126331 -4.86518019 269.400274 -4.86518019 270.042751 -2.86505056 271.073591 -1.4404978 273.475686 0.449312938 273.096913 0.655561317 272.871566 0.823437905 272.320187 1.4134042 273.566784 2.93868291 274.952423 7.63922738 276.285323 9.21726731 276.951772 6.77586207 278.740159 6.83341976 280.912114 7.89823697 282.695706 8.43064558 282.695706 9.21726731 279.665517 8.32991963 278.140834 8.43064558 277.488768 9.6777288 277.618222 11.9800363 277.982612 14.4885922 278.538786 16.8868291 279.257976 18.93972 279.675106 18.3065854 279.886069 18.1195229 280.921703 18.93972 279.281949 20.0764843 278.706597 20.8679025 278.102477 22.5082966 277.704525 24.1630801 277.623017 25.5828364 278.068915 26.5373347 279.257976 26.7963443 278.888792 28.0865958 278.697008 29.4296085 278.625089 32.4897589 278.898381 33.5833549 279.478528 34.8448276 280.077853 35.5786881 280.346351 35.0750583 281.003211 33.0989111 282.58543 32.1827845 284.474503 32.1827845 286.0759 32.9694063 286.0759 33.756028 284.038194 32.7679544 282.911463 33.3962925 282.369673 35.3004926 281.458698 42.7014519 281.80391 43.4353124 282.801187 43.6847291 283.227906 44.3994037 283.155987 45.5313715 282.695706 46.9799067 281.957337 45.9198859 281.401163 47.2101374 280.725124 53.3160487 280.164156 54.7789733 279.27236 55.9157376 278.102477 56.4721286 278.102477 57.4122375 280.125799 57.9446461 281.151844 59.9159969 281.506644 62.932979 281.549796 66.4583873 282.259397 69.470573 285.385477 72.2477314 286.0759 75.2407311 286.512209 76.0225564 287.581405 76.7132486 290.458166 77.5430386 290.908859 78.0514649 291.19174 78.7661395 291.297221 79.5767436 291.522568 80.1619134 291.978055 79.955665 292.376007 79.4712212 292.376007 79.1642468 295.607568 79.4712212 297.467874 80.4449054 298.800773 82.6416904 295.717844 81.4713508 286.708787 83.4954628 280.058674 82.6416904 278.716186 82.9486648 274.679131 85.1502463 268.043402 86.1814882 261.911106 86.0807623 258.363101 85.1022816 256.450055 82.9486648 256.426082 79.9796474 258.506939 76.5837438 257.907614 75.6724138 257.639116 75.0105004 257.6535 74.4541094 257.89323 73.9025149 249.349249 75.6532279 249.871861 76.5837438 246.717013 76.5837438 245.959466 77.0010371 245.810833 77.8691989 245.810833 78.7661395 245.508773 79.1642468 244.238204 79.5479647 243.260105 80.4928701 242.627218 81.624838 242.368309 82.6416904 243.173802 84.186155 244.736842 87.96098 245.508773 88.6948405 246.477283 88.7523982 247.3499 89.0449831 248.107447 89.8076225 248.716362 91.2849365 247.709496 90.5127042 247.3499 90.1385792 246.999894 89.5582059 246.434131 89.5582059 246.750575 91.5775214 247.977993 93.8318641 247.517711 94.8247342 249.871861 96.4651283 247.254008 98.1678766 246.434131 99.0504278 246.764959 96.2684729 246.247142 94.5657247 244.089571 91.2849365 244.34848 90.7956961 244.708075 89.5582059 243.658057 89.1696915 242.924483 88.2631579 242.507352 86.9968888 242.368309 85.6250972 240.594306 82.3395126 240.383344 81.7879181 236.365467 82.1860254 232.625678 83.4954628 233.301717 85.3325123 233.757204 86.1814882 234.342145 86.9681099 233.277744 85.8409386 232.251699 85.7258232 231.264011 86.4644802 230.329064 87.9130153 231.077022 88.5701322 231.427027 88.6948405 231.427027 89.5582059 230.170842 90.268084 229.418089 89.5582059 228.972191 87.96098 228.607802 86.0807623 228.650953 87.6540057 228.358482 88.9442572 227.759157 89.9083485 226.838593 90.4215712 226.675577 89.073762 226.368722 87.6540057 225.807754 86.5412237 224.858423 86.0807623 224.570747 85.4236453 224.11526 82.4642209 223.717308 81.7879181 221.794672 82.7088411 220.102178 84.4931294 218.534343 85.572336 217.038427 84.3684211 219.378193 81.7879181 219.809707 81.068447 220.111767 80.3345865 220.485746 79.6726731 221.10425 79.1642468 221.10425 78.2337309 220.001491 78.4159969 219.148052 78.032279 218.548727 77.0873736 218.237078 75.6532279 217.081579 77.931553 214.885651 80.1043557 212.358896 81.7879181 210.158173 82.6416904 209.424599 80.8957739 207.593061 80.6319679 203.858067 81.7879181 205.493026 82.5649468 206.197832 82.6416904 206.197832 83.4954628 205.027949 84.8192896 199.355935 88.3686803 197.855225 88.8723101 196.982607 89.5582059 196.335336 90.3400311 194.350371 93.4817215 192.729796 95.2516204 191.34895 95.8607726 188.026291 95.6785066 187.685874 96.6186155 187.719437 98.4460721 187.513269 99.6355976 186.329002 98.6715064 185.624196 97.7074151 184.919389 96.9735546 184.113896 96.5178896 183.121413 96.4651283 183.778274 95.8607726 184.248145 95.1221156 184.593356 94.2395644 184.84747 93.0836142 180.057663 90.7381384 178.034341 89.2176562 176.950761 88.6948405 176.53363 88.2871403 176.236365 87.5005185 176.41856 86.8625875 176.653495 86.2870106 176.53363 85.6250972 176.202803 84.6130412 175.354158 80.8382162 169.883518 76.0993 169.346522 74.8378273 168.056774 73.3461239 166.536885 72.0270936 165.295084 71.2164895 165.295084 70.4346642 165.645089 70.2571947 166.450583 69.5665025 166.345101 68.7127301 166.345101 67.9500907 166.450583 66.8852735 164.777267 66.2857143 160.524455 66.0458906 158.366884 65.2352865 158.366884 64.2807882 157.288098 64.2807882 157.288098 63.48937 158.697711 62.376588 159.340188 62.0024631 160.140887 61.7626394 160.140887 61.1630801 160.044994 61.0143894 159.85321 61.0143894 159.517588 60.8800882 160.140887 60.0167228 159.301831 59.34042 158.419624 59.0862069 157.537418 59.3116412 156.703157 60.0167228 155.331901 59.6905626 153.692147 62.1319679 150.920867 67.8157895 150.28798 67.8157895 150.28798 66.8852735 152.105134 64.5062225 152.646924 63.48937 153.730504 60.1750065 154.358597 59.1629505 153.222276 58.2036557 153.222276 57.4122375 153.816807 56.1747472 153.754477 54.836531 153.164741 53.6901737 152.124312 52.9994815 151.059911 53.3160487 149.501665 55.210656 148.638637 54.7981592 147.881089 55.7670469 145.829 57.5369458 143.311834 60.6786362 142.631 61.8969406 142.33853 63.48937 141.902221 62.6787659 141.791945 62.3238268 141.705642 61.7626394 142.789222 60.4675914 143.398137 58.1700804 143.450877 55.6903033 142.899498 53.8724397 141.54742 53.5558724 139.059022 56.6831735 138.267913 56.4721286 137.682971 56.4721286 136.704872 57.2059891 129.62804 59.896811 129.052688 60.2805289 128.208838 61.3117708 127.456085 61.8154006 126.420451 61.920923 124.44987 61.7626394 124.747135 61.1630801 124.905357 60.7553798 125.130703 60.4052372 125.600574 60.0167228 124.430692 59.9159969 121.534752 58.2036557 118.883337 58.0453721 118.097023 57.4122375 117.569616 57.4122375 117.123718 58.4770547 115.287386 61.7626394 112.870906 62.8610319 112.027057 63.9402385 112.372268 66.0267047 115.273002 69.643246 116.490831 70.4346642 112.113359 71.2164895 111.763353 72.0990407 112.113359 74.0368162 112.952415 76.9674618 111.744175 77.6341716 109.284544 77.6437646 107.22766 77.0010371 107.261222 74.8378273 104.274185 75.6724138 103.200194 75.6532279 102.250863 75.1400052 100.313844 73.4228675 99.3932805 73.0391496 95.4952692 73.245398 93.9226398 72.7609541 92.8342651 71.2164895 92.8486489 72.0270936 92.8007029 72.7129894 92.6233026 73.3173451 92.2541183 73.9025149 91.2280735 73.0919108 90.5568292 74.5404459 90.3170991 76.9674618 90.5280616 79.1642468 89.8664066 78.4831475 89.6074981 78.0994296 89.3437949 77.3703656 88.8163887 77.3703656 89.2718759 79.9364791 89.5739358 81.0012963 89.957504 81.7879181 89.3437949 82.6416904 89.957504 83.4954628 89.3437949 84.3684211 88.2602149 82.9150894 85.7670219 81.3178636 84.7505663 79.955665 84.7505663 79.1642468 85.1197507 78.9915738 85.9492168 78.2337309 84.2806953 77.8212341 83.0580719 78.4639616 80.6847439 80.8382162 81.1210527 79.3225305 80.9915984 78.0514649 80.4450138 77.1257454 79.5963693 76.5837438 79.5963693 75.6532279 80.1717215 75.6532279 80.1717215 74.8378273 79.1840335 74.4924812 79.0785523 73.8257713 79.3854068 72.9144413 79.5963693 71.6913404 79.0785523 71.2980296 76.1011045 72.1853772 74.3318964 73.2885662 73.301057 73.6674877 72.145558 73.9025149 72.4715909 75.0584651 72.4188503 76.008167 72.0784335 76.7564169 71.5174651 77.3703656 70.9996481 77.3703656 70.6496422 76.4350532 70.2373064 75.8354939 69.7674354 75.8354939 69.278386 76.5837438 67.772881 75.6724138 65.8646295 75.5572984 63.9084319 75.9314234 62.3022403 76.5837438 60.8830381 77.5957998 59.4446575 79.0683173 59.0131434 80.3633653 60.6289242 80.8382162 60.6289242 81.7879181 59.4973982 81.7879181 57.5987358 81.0204822 56.5678964 80.8382162 55.6856897 81.0924293 53.1205776 82.6416904 51.1643801 82.8383459 51.7876783 80.0611875 50.2534057 78.2337309 48.0766564 78.1330049 45.8088098 79.0203526 43.4786332 80.3873477 41.0909215 80.8382162 41.0909215 81.7879181 41.6135331 81.9270158 42.7546483 82.6416904 40.8128346 82.6896552 38.0415547 84.0326679 36.1380977 84.3684211 29.5838769 84.3684211 29.5838769 85.1502463 30.3270402 85.6250972 30.4996459 86.0327975 30.3462186 86.4404978 30.0968993 86.9681099 32.3935137 87.9130153 30.8065004 87.96098 26.9660243 86.9681099 25.8824443 87.7307493 26.4769749 89.447887 28.4187887 92.1387088 27.3687709 92.4408867 24.5879018 90.8724397 22.9577371 90.4215712 20.3494737 90.6901737 18.7816389 91.2273788 17.4391503 92.1387088 18.0624486 93.0836142 17.1562688 92.7190822 16.2884459 92.1387088 14.7829409 94.3402904 12.7068783 98.2062484 11.8582337 101.861162 13.9918316 103.463184 13.9918316 104.21623 12.4144076 104.724656 11.4267196 106.470573 11 108.825642 11.1246596 111.219082 12.5582456 114.600596 12.6924945 116.197822 11.1246596 116.384885 11.6568605 118.984574 12.3904345 120.274825 13.5075768 120.706508 17.7364157 120.754472 18.4939628 120.332383 18.6330062 119.421053 18.623417 118.504926 18.9254769 118.102022 20.5460524 118.356235 23.4707595 119.569743 24.9427023 119.9007 26.572867 119.675266 29.0804437 118.4042 33.1894176 117.387348 38.4826581 114.039409 41.0909215 112.926627 46.7581409 112.000907 48.4218678 111.362976 51.0588988 109.837698 52.55002 109.420404 44.5334456 114.17371 43.5937037 114.936349 38.8038964 120.754472 38.8038964 121.545891 39.96419 121.421182 41.0909215 121.090226 42.0546365 120.581799 42.7546483 119.9007 43.3875358 120.754472 43.0806813 121.008686 42.9895838 121.061447 42.7546483 121.545891 44.6389269 121.195748 47.2951363 119.344309 48.5417328 119.9007 48.853382 119.344309 49.371199 118.701582 49.6349021 118.102022 50.2534057 118.102022 50.2534057 119.042131 49.6349021 119.042131 49.6349021 119.9007 50.9534176 119.488203 52.8520799 118.102022 54.2712821 118.102022 52.6507067 119.876718 51.8260351 120.476277 51.4376724 121.008686 51.4089048 121.545891 50.6897145 121.81929 50.3397085 122.126264 49.6349021 123.243842 53.2212643 123.013612 53.7534651 122.860124 54.2041577 124.13119 55.2493809 124.562873 56.4192637 124.255898 57.1864 123.243842 57.5459952 124.735546 58.5288886 125.215193 61.1515358 125.04252 61.1515358 125.977833 54.2856659 127.440757 52.55002 126.759658 53.7870273 126.730879 54.3144335 126.510241 54.8466343 125.977833 49.2129771 126.385533 45.2526359 127.517501 44.2457695 127.623023 43.1478057 127.421571 42.505329 126.96111 41.9443606 126.399922 41.0909215 125.977833 33.6113425 126.510241 31.2955498 125.411849 32.3935137 120.754472 30.9934899 120.102152 29.9290883 121.114208 28.4187887 125.04252 28.5818051 125.493389 28.7927676 126.385533 28.6057782 127.239305 27.5461711 127.623023 26.6256076 127.440757 25.9255957 127.167358 25.2255838 127.119393 24.3050203 127.623023 24.5399557 128.86531 24.3050203 130.208323 29.3537361 130.409774 30.3893701 130.659191 30.9599277 131.954239 30.643484 132.462665 29.9866235 133.019056 29.5838769 134.481981 29.7804556 135.426886 30.293478 136.491703 31.2523984 137.935442 30.8256788 138.770029 30.0968993 141.427275 32.2592648 140.688618 33.750386 138.304771 34.9202688 135.450869 36.1380977 133.220508 38.4730689 132.405108 42.9560216 135.273399 45.0512627 134.481981 45.2526359 135.292585 45.6314095 136.055224 46.1588157 136.664376 46.8156761 137.06728 50.3780654 137.877884 51.5047968 139.024242 51.9315164 141.834975 52.1808357 142.688748 53.3603077 144.242805 53.7534651 145.633783 52.9335882 149.173581 52.55002 150.084911 51.3130127 150.622116 46.504027 149.144802 19.4864454 155.202748 19.0069852 155.030075 18.3501247 154.272232 18.0624486 154.291418 17.7651833 154.723101 17.659702 155.202748 17.5973722 155.634431 17.093939 156.57454 16.7487277 157.361162 16.3268027 158.119004 15.7754235 158.545891 22.0755304 160.344568 24.9187293 160.171895 26.3619045 160.445294 28.8694813 162.905885 29.9674451 162.296733 30.9982845 161.04965 32.1298105 160.344568 32.9640713 160.800233 40.4004988 166.68071 44.3991968 171.875292 45.6697663 174.153617 46.4704648 177.56391 47.7362397 180.758361 48.0239158 182.993518 47.7170613 183.823308 46.997871 184.005574 46.1971725 184.005574 45.6841501 184.302956 45.5451066 185.046409 45.7273015 186.792326 45.6841501 187.722842 57.9870986 188.308011 60.0583666 187.722842 61.3385253 186.964999 64.0666538 184.302956 64.0666538 183.396422 61.7748341 183.396422 61.7748341 182.6098 62.0673048 182.226082 62.3022403 181.746435 61.0748222 180.859087 61.3145523 179.343402 62.4748459 179.012445 64.0666538 181.746435 64.9200929 180.916645 65.67764 180.360254 66.5071061 180.05328 67.5571239 179.976536 67.5571239 179.189914 66.5454629 178.225823 65.4043477 176.527871 64.9057091 174.633264 65.7879158 173.165543 66.0516189 175.194452 66.8667013 177.137024 67.9502813 178.604745 68.9667369 179.189914 70.3236092 179.343402 71.4359569 179.775084 73.8140794 181.746435 74.240799 180.652839 74.878481 180.384236 75.7127418 180.360254 76.7244028 179.976536 76.4415213 181.070132 75.9428827 181.645709 75.276433 181.823179 74.4277885 181.746435 76.1490505 182.226082 78.0285345 180.13482 78.6374489 178.259398 77.8703126 175.72686 80.0902133 176.14895 82.334087 177.640653 83.911511 179.472906 84.1848033 180.815919 85.2204373 181.492222 85.7430489 181.727249 86.4814176 181.746435 86.1218225 183.19497 86.428677 183.95761 87.018413 184.437257 87.6129437 185.089577 89.2191353 188.082577 89.3437949 188.480684 90.8588891 188.638968 92.7431677 188.25525 94.5267596 188.202489 95.7445885 189.430386 100.126855 186.964999 100.860429 187.295955 101.560441 188.989111 103.171427 189.579077 106.345453 189.430386 106.738611 189.655821 107.697531 190.720638 108.349597 191.118745 109.059198 191.219471 111.221563 191.118745 114.189422 191.857402 115.565473 191.876588 116.490831 191.118745 116.807275 192.049261 117.171664 192.586466 118.097023 193.680062 119.300468 196.2126 121.798455 199.455017 122.162845 200.136116 123.356701 200.491055 130.241749 198.764325 130.241749 197.982499 129.839003 197.349365 129.316391 196.840939 128.66912 196.457221 130.428739 196.030334 132.979467 194.509852 135.29526 192.332253 137.117208 190.202619 137.117208 191.118745 136.038423 191.98211 135.276081 193.454628 134.20209 196.2126 133.679479 196.361291 132.245893 196.155043 131.948627 196.644283 131.948627 197.809826 131.862325 198.438164 131.517113 198.692377 130.754772 198.764325 130.754772 199.70923 134.288393 200.059373 135.779514 200.586985 137.117208 201.402385 137.117208 202.160228 133.765781 200.94672 132.269866 200.802826 130.754772 201.402385 133.008234 201.479129 136.695283 202.467202 138.83847 203.100337 141.389199 205.983018 142.012497 206.491444 142.789222 205.968628 143.048131 204.822271 143.450877 203.656728 144.62076 203.100337 143.748143 201.786103 143.42211 201.402385 144.62076 201.071429 145.272826 200.265621 145.857767 199.805159 146.864634 200.543816 146.984499 200.083355 146.97491 199.881903 147.061213 199.781177 147.487932 199.70923 147.113953 197.982499 146.591342 196.673062 145.790643 195.756935 144.62076 195.30127 145.94407 195.023075 147.070802 195.608245 147.972187 195.838475 148.638637 194.509852 149.156454 194.509852 149.108508 195.38281 149.156454 197.982499 149.544816 197.728286 150.537299 197.349365 150.920867 197.071169 150.920867 198.30866 151.00717 199.2056 151.179776 199.881903 151.496219 200.543816 145.196112 203.479258 144.184451 206.975888 143.987873 208.568317 144.323495 209.335753 145.124193 209.815401 146.06873 210.218304 146.864634 210.721934 148.05849 212.122505 148.983848 213.73412 149.578379 215.887737 149.784546 218.78001 149.587968 220.444387 148.816037 222.550039 148.638637 223.893052 148.772885 225.034612 149.784546 228.603189 150.28798 228.603189 150.839359 228.046798 152.598978 228.526445 153.735298 228.603189 151.874993 226.42559 150.484558 223.542909 150.014687 219.993518 150.920867 215.810993 150.518121 215.585559 150.148936 215.153876 149.784546 214.981203 150.484558 213.666969 151.4243 213.580633 152.402399 214.22336 153.222276 214.981203 152.670897 215.489629 152.124312 215.810993 153.29899 216.525668 154.636684 216.424942 157.288098 214.981203 157.829888 215.55678 158.318938 215.739046 159.517588 215.810993 159.014155 214.170599 159.297037 212.803604 159.85321 212.597355 160.140887 214.515945 160.548428 216.14195 161.320359 216.472906 161.79023 215.686285 161.30118 214.036298 162.427912 215.077132 163.324502 216.343402 164.077255 217.158802 164.777267 216.669562 165.645089 217.916645 165.880025 218.348328 166.100577 217.859087 166.23962 217.508945 166.450583 216.669562 165.57317 215.791807 164.633428 214.54952 163.890265 213.182525 163.588205 211.921053 163.588205 208.952035 163.473135 208.08867 163.070388 206.544205 162.960112 205.551335 163.588205 205.551335 163.803962 207.100596 164.360136 208.275732 165.247138 208.928053 166.450583 208.952035 165.731392 209.537205 165.472484 210.491703 165.558787 211.762769 165.880025 213.278455 166.450583 213.278455 166.805383 212.746046 167.073881 212.544594 168.176639 212.347939 168.176639 213.278455 167.586903 213.278455 167.586903 214.036298 170.377362 213.359995 172.026705 212.597355 172.760279 211.105652 173.623307 210.247083 177.948038 209.786622 179.683684 208.952035 178.542569 208.189396 181.131654 208.649857 182.133725 209.311771 183.121413 210.721934 181.452892 210.141561 179.683684 209.882551 183.87896 212.57817 184.315269 213.278455 185.293368 213.206508 185.676936 212.952295 186.046121 212.347939 184.84747 211.513352 185.883104 211.206378 186.396126 210.602022 186.266672 209.815401 185.465974 208.952035 185.465974 208.189396 187.350252 210.645191 186.966684 212.952295 183.687176 217.508945 184.315269 218.348328 182.536472 219.537853 180.249447 219.758491 178.130233 219.063002 176.816512 217.508945 176.341846 219.336401 176.255543 220.147005 175.483613 219.389163 174.913055 219.178118 174.424006 219.456313 173.963724 220.147005 173.373988 220.147005 172.13698 217.63845 169.85475 217.63845 168.454726 218.645709 169.883518 219.206897 169.950642 219.816049 169.816393 219.993518 170.080096 220.123023 171.029427 220.27651 171.839715 220.679414 172.180132 221.336531 172.50137 221.466036 173.795913 223.893052 173.963724 224.372699 175.090455 225.442313 176.183624 225.998704 177.43981 226.123412 179.060386 225.969925 183.433063 224.459036 184.84747 224.372699 187.633134 225.360773 188.783838 224.703656 188.903703 221.739435 189.809883 222.401348 190.792776 222.626782 192.916785 222.6028 192.73459 221.763417 192.394173 221.28377 191.885946 221.029557 191.190728 220.909645 192.629109 220.549909 193.866116 220.679414 195.064767 220.497148 196.359309 219.206897 195.716833 220.880866 194.465441 222.267047 192.988704 223.211952 191.71334 223.437387 192.585958 224.219212 193.09898 224.147265 193.592824 223.720379 194.350371 223.437387 197.505219 223.437387 200.242937 222.52126 201.336106 222.372569 202.664211 222.6028 209.074593 225.135338 210.613661 225.154524 212.862329 224.756417 214.223996 225.135338 212.478761 225.015426 209.41501 225.864402 204.17451 226.142598 203.239563 226.986777 204.433419 228.603189 203.738202 230.963054 204.802603 231.620171 206.562222 231.81203 207.923889 232.732953 207.156753 234.507648 208.532803 235.040057 210.604071 235.088022 211.88423 235.337438 211.620527 236.181618 208.729382 237.79803 207.923889 238.738138 207.295796 237.975499 207.66498 237.754861 207.756078 237.730879 207.923889 237.03539 206.519071 236.757195 205.641658 236.407052 204.749863 236.359087 198.085366 240.335364 201.556658 242.613689 202.515578 244.508297 202.664211 248.105652 203.282714 248.105652 203.738202 246.892144 203.699845 246.383718 203.282714 245.505963 203.546417 245.222971 203.814915 245.045502 204.433419 244.714545 205.708783 246.460461 207.386894 248.105652 208.168414 249.779621 206.720444 251.443998 204.821782 251.803733 201.206652 250.057817 199.269633 249.779621 199.269633 250.619004 207.142369 254.748768 209.59241 254.849494 209.688302 254.494555 209.812962 253.731916 210.124611 252.89733 210.795856 252.302567 211.414359 252.163469 212.200674 252.13469 213.605492 252.302567 214.947981 253.098781 216.990481 255.477833 218.237078 256.590614 219.752172 257.223749 221.411104 257.247731 222.998117 256.619393 224.963904 254.63845 227.466686 253.909386 228.339304 253.122764 228.775613 252.340939 229.120824 251.525538 229.700971 250.619004 232.338002 249.021779 243.931349 248.206378 247.114965 249.146487 248.284848 250.336012 249.0376 250.619004 251.008182 250.825253 252.695881 251.381644 255.596616 253.146746 258.554885 255.602541 261.091229 258.619523 262.548788 259.813845 266.005696 260.51413 267.688602 261.655691 263.162497 261.511797 261.230273 260.614856 259.379557 258.619523 258.526117 258.063132 255.030853 257.353254 251.578739 254.849494 251.578739 253.909386 253.309591 253.909386 252.556838 253.122764 251.736961 252.590355 250.840371 252.302567 249.871861 252.302567 250.432829 253.146746 249.152671 253.204304 244.856707 252.038761 244.22382 251.443998 243.566959 250.619004 242.934072 250.743713 242.368309 251.017112 241.792957 251.443998 234.064059 252.283381 232.050326 253.146746 231.307162 254.192377 230.765372 255.684081 230.444134 257.247731 230.329064 258.619523 230.573588 260.490148 231.46059 262.41833 231.427027 264.097096 231.177708 265.910163 230.923594 266.931812 230.281118 267.358698 227.538605 267.732823 226.560507 268.447498 225.654327 269.30127 224.551568 270.059113 227.519427 271.713897 237.204523 273.407052 242.267622 276.241768 243.566959 277.536816 244.46355 278.951776 245.393703 281.138968 245.551925 283.215841 244.089571 284.328623 243.087499 286.506222 241.663503 290.938164 240.637458 292.784807 237.429869 294.789733 236.207246 296.079984 236.681911 297.797122 234.53393 299.370366 233.968166 300.636635 233.766793 303.265102 233.862685 305.375551 234.193513 307.706637 234.812016 309.630023 235.770937 310.411849 237.957275 311.174488 240.551155 313.045113 245.230686 317.937516 247.71429 323.021779 248.43348 323.765232 249.81912 323.913923 251.233528 324.39357 252.341081 325.280918 253.189725 328.403422 254.196592 329.592948 255.491134 330.70573 256.74732 332.178247 257.269932 333.583614 257.6535 335.228805 258.31995 336.610189 259.662438 337.161784 259.293254 339.286622 261.172738 348.208063 261.954258 349.320845 262.745367 349.742935 263.100168 349.215323 262.985097 348.150506 262.505637 346.150376 262.472075 344.663469 263.272773 345.977703 264.21731 348.634949 264.826224 349.618227 265.890626 350.275344 268.254365 350.93246 271.073591 353.42183 275.546954 354.213249 276.91821 355.522686 276.194225 357.023982 278.471661 357.753046 284.071756 358.00726 286.37796 358.462925 288.319774 359.801141 289.647878 362.036298 290.141722 365.077262 291.052697 367.681747 293.1815 367.777677 297.645274 366.37231 298.762416 366.823179 300.665873 368.487555 303.250164 370.03202 304.084425 370.1951 305.450886 370.569225 306.961186 372.871532 308.567377 374.828494 310.830429 375.447239 310.724948 371.624449 313.841439 369.753824 317.590818 370.01763 319.427151 372.617319 319.647702 374.315271 320.036065 375.356106 320.10319 376.320197 319.427151 377.864662 313.649655 381.462017 312.719503 383.059243 313.17499 385.390329 312.39347 385.908348 311.564004 386.934794 311.017419 388.10993 311.118106 389.136375 311.923599 389.970962 312.637994 390.119653 313.395541 390.071688 314.268159 390.325901 315.533934 390.249157 315.984626 390.325901 316.094902 390.68084 315.984626 391.261213 315.951064 391.817604 316.30107 392.047835 316.948341 392.225305 318.909334 393.721805 317.902467 394.709878 317.902467 395.213508 318.410695 395.621208 318.909334 396.172803 319.187421 396.374255 320.261411 396.73399 320.57306 396.930646 320.688131 397.395904 320.664158 398.532668 321.263483 400.153876 321.359375 401.362588 321.651846 402.355458 323.248448 402.96461 323.804622 403.391496 324.274493 403.971869 324.643678 404.509074 324.643678 405.238138 323.718319 407.291029 322.591588 408.274306 321.201153 408.183173 319.427151 406.964869 320.621007 410.945942 321.536775 412.538372 322.917621 413.473684 322.495696 413.828623 321.651846 414.706378 321.201153 415.123671 321.714176 415.747213 322.327885 416.816827 322.807345 418.054317 322.917621 419.3014 322.56282 420.687581 322.025825 420.965777 321.359375 420.817086 320.57306 420.941794 319.264134 421.728416 318.333981 422.591781 317.931235 423.119393 317.504515 423.834068 316.909985 424.53915 315.984626 425.042779 316.703817 426.289863 317.259991 428.040576 317.62438 429.839253 317.753835 431.235027 318.204527 432.314234 320.366893 434.899533 327.923185 441.005445 329.797875 443.149468 323.919693 440.396292 322.917621 439.46098 321.963495 438.823049 316.617514 432.501296 314.97776 432.424553 309.396843 434.136894 309.411227 435.681359 307.968052 444.041613 309.478352 444.650765 312.427032 443.993648 313.980483 445.202359 315.006528 446.554965 316.195589 447.763676 317.576434 448.631838 319.163448 448.934016 321.680614 449.970054 326.187539 454.47874 328.968408 455.495592 329.486225 456.004019 329.826642 458.253565 330.099934 458.757195 342.000136 467.41483 345.888558 471.875551 347.768042 474.873347 349.455742 478.216489 352.241406 485.737361 353.344164 490.346772 356.546959 513.091652 357.601771 516.86168 359.131249 519.950609 362.118286 522.257713 365.766978 523.452035 369.118405 525.126005 371.213646 528.848068 369.329367 527.279621 367.392348 526.286751 365.225188 525.797511 362.621719 525.677599 364.597095 526.895904 366.471784 528.814493 367.416321 531.380607 366.625212 534.575058 367.147823 536.037983 367.454678 539.381125 367.775916 541.031112 366.653979 540.138968 365.949173 538.239564 365.594372 535.78377 365.488891 533.327975 365.733416 531.428571 365.603961 530.339772 364.913539 528.848068 364.179965 528.008686 361.475809 526.416256 358.268221 523.269769 355.405843 519.547705 352.567439 512.650376 352.227022 511.31216 350.659187 500.299456 349.542045 495.862717 349.331083 493.483666 348.352984 489.881514 345.998834 486.394478 335.839073 475.079596 334.534941 474.662302 331.00132 472.662173 325.367662 468.282992 324.643678 467.34768 323.751882 465.927923 323.492973 465.294789 323.497768 464.632875 323.679963 464.004537 323.910103 463.620819 323.962844 462.253824 324.01079 461.371273 323.804622 460.838864 322.917621 460.387996 321.570338 460.915608 320.366893 462.757454 317.494926 468.58517 316.972314 470.340679 315.462015 495.493389 311.971545 514.276381 306.860499 572.553539 307.416673 571.239305 308.159836 568.414182 309.113962 563.214804 312.887314 557.435053 313.438693 556.317475 313.640066 556.120819 313.755137 555.660358 313.908564 555.156728 314.268159 554.77301 314.843511 554.725045 315.246258 554.998444 315.586675 555.362976 315.984626 555.588411 316.909985 555.996111 323.234065 561.938942 324.063531 563.64169 322.917621 563.64169 324.993683 565.81929 324.96971 567.62756 323.277216 568.836272 320.314152 569.263158 315.16475 567.996889 313.055125 568.078429 311.396192 570.155302 309.895482 575.551335 309.68452 576.966295 309.353692 577.724138 307.133791 580.947368 307.047489 581.930646 307.771473 585.273788 307.968052 586.995722 307.383111 594.257584 305.091291 610.699896 299.668596 643.704433 296.724711 658.774955 294.734951 665.413275 291.297221 684.397718 289.269105 690.99287 288.693753 694.609411 287.351264 698.921442 286.708787 700.259658 282.278575 703.708323 281.549796 704.619653 281.175817 705.909904 279.363457 709.478481 278.625089 710.490537 277.057254 711.632097 275.187359 712.644153 273.226367 713.354032 265.799528 714.572336 264.246077 715.200674 263.622779 716.073632 262.299469 715.109541 261.815214 718.318382 261.752884 720.726212 261.772063 722.145968 264.178953 723.316308 265.228971 724.721675 265.502263 726.985611 265.943367 727.892144 266.839957 727.74825 267.827645 727.25901 269.63521 727.033575 271.332499 726.290122 272.099635 726.395644 273.696238 727.153487 274.525704 727.74825 274.51132 728.309437 274.281179 728.980944 274.425017 729.993 275.033932 731.969147 275.446267 732.477573 276.462723 732.952424 277.368903 733.086725 278.438099 732.952424 279.344279 732.429609 279.833328 731.417553 280.494983 729.470184 281.751169 728.712341 283.405307 728.755509 286.027954 729.542131 289.528013 731.359995 290.458166 731.211304 291.383524 730.885144 292.395185 730.885144 294.802075 733.3937 295.118519 737.571429 294.212339 742.152061 292.936975 745.778195 291.867779 747.221934 288.415666 750.939201 287.720448 751.903293 288.775261 754.397459 290.304739 756.114597 292.15066 757.208193 294.212339 757.731009 296.513748 757.93246 297.94254 757.452813 298.66173 755.913145 298.848719 752.920145 299.448045 750.613041 300.881631 748.99663 302.770704 748.253176 304.659777 748.756806 302.900158 750.286881 302.21453 751.783381 302.602893 753.327845 304.0173 754.96824 305.604313 755.913145 310.461245 756.786103 313.347595 758.388125 316.094902 760.618486 319.240161 760.349883 319.964146 760.618486 321.359375 761.51063 321.987468 762.033446 324.883408 762.397978 326.283431 762.791289 327.309476 763.980814 330.224594 766.191989 333.436977 767.232823 340.125447 767.794011 346.59816 766.614078 348.842033 767.410293 350.419457 771.458517 350.376306 772.269121 350.098219 772.796733 350.011916 773.405885 350.472198 774.44672 351.330432 775.2909 352.155103 775.382033 352.979775 775.262121 353.823625 775.410812 356.700386 777.18071 358.191507 778.442183 361.461425 782.811771 361.58129 783.315401 361.413479 783.795048 361.399096 784.217138 361.94568 784.480944 363.316936 784.480944 363.681326 784.610449 364.17517 785.286751 364.0601 786.025408 364.045716 786.696915 364.851209 787.23412 365.508069 787.13819 366.922477 786.174099 367.651256 785.919886 367.804684 783.214675 369.938282 783.262639 374.473975 785.39707 377.034292 785.181229 379.067204 783.972518 383.094669 780.778066 383.828243 781.540705 384.485104 781.286492 385.065251 780.403941 385.520738 779.291159 386.810486 780.49987 391.883174 783.57441 392.885246 785.689655 395.133915 785.967851 397.559983 785.286751 399.070283 784.64882 398.883293 786.634561 399.377137 788.601115 400.384004 790.275084 401.764849 791.411849 402.287461 792.044983 402.392942 792.860384 402.623083 793.594244 403.510084 793.997148 404.574486 794.304122 405.159427 794.812549 405.552584 795.392922 406.036839 795.896552 409.359498 797.215582 412.255438 796.937387 418.732945 794.558335 423.882348 793.771714 425.459772 792.7021 426.821438 792.510241 431.290007 793.670988 432.632496 794.332901 434.430472 797.527353 435.734603 799.091003 436.976405 798.889551 439.344939 795.570391 440.821676 794.078688 442.351154 793.517501 444.671741 795.488851 444.858731 795.872569 444.829963 796.357013 444.877909 796.807882 445.304629 797.215582 446.977945 797.536946 448.617699 797.441016 451.810904 796.611226 453.206133 797.1916 463.672749 796.889422 466.640607 797.287529 467.743366 796.889422 468.47694 795.671117 468.563243 793.819679 467.983096 792.107337 466.990613 790.826679 465.796757 790.409386 466.30978 789.267825 466.621429 788.778584 467.249522 788.298937 466.319369 787.008686 467.494046 783.823827 467.311851 781.387218 467.714598 779.737231 469.642028 778.979388 471.943437 778.801919 473.429763 778.955406 476.325703 780.09217 477.788057 780.423127 479.413427 780.274436 480.861396 780.523853 484.486115 782.653487 486.969719 783.636764 487.698499 784.197952 489.045782 785.512186 489.932783 785.895904 490.743071 785.488203 491.524591 784.831086 492.387619 784.552891 493.102015 784.831086 494.49245 785.967851 495.125337 786.351569 502.283678 786.831216 504.033707 787.392403 505.524829 788.740213 506.344705 790.351828 506.982388 792.13132 507.835827 793.69497 509.274207 794.754991 510.20436 794.860513 513.013997 793.93959 523.346364 793.997148 525.32174 794.534353 524.95735 796.150765 525.379275 796.611226 526.170384 796.663988 526.875191 797.042909 528.356723 799.700156 529.967709 801.930516 531.386911 805.830049 532.599945 807.422479 534.455456 806.664636 535.754794 802.184729 538.406208 802.309437 540.865839 801.369328 542.150792 801.268603 546.710459 804.405496 547.616639 804.837179 557.167486 805.782085 556.438706 808.089188 557.795578 808.938164 559.742187 809.547317 560.782615 811.048613 558.68258 811.245268 557.148307 812.751361 556.21336 815.101633 555.9113 817.941146 556.160619 818.089837 556.32843 818.334457 556.385965 818.617449 556.347609 818.981981 557.89147 819.610319 563.098408 820.310604 564.858027 821.049261 569.571121 824.291677 571.546497 824.742546 573.114331 824.828883 574.418463 825.404459 575.564373 827.303863 576.667131 831.563132 577.458241 833.304252 579.117173 834.728805 580.148012 835.414701 581.279538 835.59217 583.461082 835.33316 584.856311 834.983018 585.815232 834.345087 587.229639 832.85818 589.233783 831.313715 589.63653 830.642209 590.264622 828.977833 590.667369 828.397459 592.014652 827.769121 595.974993 828.248768 601.157958 826.622764 603.7854 826.344568 606.134755 827.663599 607.136827 828.498185 612.02732 830.800493 614.635584 831.385662 615.978072 831.433627 616.596576 833.261084 617.910297 835.030983 619.526078 836.326031 621.079529 836.733731 622.791202 837.688229 623.721354 838 624.593972 837.971221 625.159735 837.438813 625.854952 835.59217 626.521402 835.002204 628.132388 834.954239 632.001632 836.278066 633.852348 836.623412 636.091427 836.508297 636.06266 835.995074 635.027026 834.834327 634.259889 832.675914 634.921544 831.683044 638.459961 828.901089 639.951082 828.119264 641.672344 827.994555 644.951852 828.498185 646.701881 828.215193 648.058754 827.385403 650.57592 824.90083 651.937587 824.114208 653.28487 823.955924 654.728045 824.013482 656.123274 823.788048 658.894554 821.634431 661.58912 822.675266 663.022706 821.735157 663.924091 821.912626 666.374133 821.98937 666.935101 822.138061 667.481686 823.40433 668.138546 824.469147 668.953629 825.332512 669.950906 825.96085 671.676963 826.526834 673.834533 826.747472 676.035256 826.646746 681.731243 825.663469 681.855902 824.96798 681.827135 822.16684 679.099006 818.392015 673.259181 812.468369 672.400947 810.204433 671.422849 801.594763 671.451616 800.237361 671.22627 799.59943 670.761194 799.297252 669.624873 799.364402 669.250894 799.196526 668.680336 798.323568 668.311152 797.474592 668.416633 796.486518 669.250894 795.316178 670.329679 796.913404 670.823523 797.345087 671.106405 796.52489 672.079709 790.754732 672.18519 788.706637 672.065325 786.687322 671.686552 784.701582 671.183119 783.766269 670.248171 783.344179 667.874843 782.576744 666.551533 782.428053 665.813164 782.020353 665.261785 781.300882 664.719995 779.722842 664.091902 778.955406 667.404972 775.458776 668.39266 774.921571 668.718693 774.312419 668.622801 771.707934 668.968013 771.098781 669.711176 771.276251 670.900237 771.885403 671.480384 771.813456 672.808489 770.523205 672.43451 769.424812 670.113922 767.515815 669.169386 765.832253 668.953629 764.038372 669.653641 762.719341 671.480384 762.445942 670.368036 764.48924 670.075566 765.506093 670.449545 766.417423 671.408465 766.772362 671.902309 765.856235 672.295466 764.618745 672.952327 764.009593 673.27836 763.352476 673.551652 761.894348 673.786587 758.925331 674.136593 757.731009 675.752374 755.951517 676.135942 754.565336 675.49826 753.495722 674.093442 752.637153 672.698213 751.06391 672.065325 747.90783 672.463277 747.073243 673.474938 746.73749 675.819499 746.73749 676.169505 747.116412 675.392779 747.955795 673.786587 749.140524 673.786587 749.883977 674.937292 750.526705 675.450314 751.279751 675.853061 751.701841 676.648965 751.505185 679.003114 747.90783 679.458601 746.536038 680.518208 745.346513 682.483995 743.600596 683.112088 742.511797 683.917581 740.324605 684.47855 739.293363 685.86419 737.547446 697.438359 728.712341 700.454163 727.196655 702.477485 726.808141 705.828912 728.477314 707.588531 727.690692 714.502347 719.210526 717.244859 716.908219 726.709403 711.761602 743.442564 697.95735 743.442564 697.093985 740.599365 698.058076 738.048637 700.182914 733.642397 705.056132 729.34164 708.821364 726.599127 710.293881 723.755928 710.490537 723.755928 709.756676 730.832761 706.797252 731.935519 705.401478 732.160865 703.631579 732.779369 702.537983 738.230831 697.95735 740.513062 696.590355 745.715205 694.988333 749.493351 692.259139 751.986544 691.40057 756.68046 690.714675 755.879761 692.455795 754.863305 693.568577 753.468076 694.254472 751.516673 694.738916 747.565921 695.089059 745.700821 695.679025 744.598063 697.093985 747.436467 695.770158 752.518745 695.228157 757.380471 695.731786 759.533248 697.525668 759.672291 697.933368 761.331223 704.034483 761.791505 705.056132 762.419598 705.756417 764.198395 706.667747 766.240896 707.109023 792.218049 707.957998 795.885919 708.720638 798.115409 710.490537 798.240069 712.524242 797.611976 714.8937 796.84484 716.87944 796.653056 717.70923 798.920902 718.845994 802.339453 719.814882 814.675964 720.376069 817.629439 719.210526 815.610911 716.999352 813.060183 715.171895 810.777953 712.802437 809.60807 708.926886 809.60807 700.643376 809.248475 699.425071 806.760076 695.453591 806.760076 694.738916 808.203252 695.602282 809.377929 697.300233 810.250547 699.295567 810.777953 701.046279 810.969737 703.012834 810.777953 709.756676 812.067701 712.802437 814.896516 715.483666 818.391781 717.459813 821.656904 718.423905 821.028812 716.548483 820.213729 715.838605 819.815777 715.229453 820.525378 713.637024 821.311693 712.922349 823.358988 712.466684 824.279552 711.73762 826.369998 710.768732 830.977611 713.430775 832.593391 712.840809 834.703016 713.430775 836.697571 712.015815 837.61334 709.430516 836.635241 706.547835 835.403028 705.530983 834.386572 704.969795 833.619436 704.015297 833.15436 701.832901 833.317376 700.969536 833.720123 699.377107 834.271502 697.851828 834.83247 697.093985 835.340698 697.420145 836.548938 699.070132 836.903738 699.45385 838.879114 699.377107 839.54077 699.45385 841.247648 700.053409 841.688751 700.643376 841.741492 701.626653 842.350406 703.396552 844.153177 705.507 846.296364 705.881125 848.645719 705.027353 851.071787 703.396552 851.393025 706.135338 850.295062 708.720638 848.583389 710.845476 846.981992 712.135727 844.675788 712.840809 837.18662 712.840809 834.573562 714.322919 833.442036 716.654006 833.868755 719.258491 836.088656 721.575188 838.164719 722.145968 843.462754 722.050039 844.675788 721.575188 848.367632 722.112393 859.563027 719.555872 861.917177 721.177081 861.917177 727.139098 862.281566 727.810604 862.852124 728.448535 863.413092 728.813067 863.667206 728.712341 863.580903 729.57091 863.389119 730.304771 862.684313 732.194581 862.065809 733.369717 861.811695 734.530464 862.449377 735.700804 863.518574 736.098911 865.944642 735.955017 867.076168 736.564169 868.365916 736.074929 870.528282 735.921442 872.551604 736.204433 873.4434 736.909515 873.903681 737.441924 874.929726 737.187711 876.018101 736.578558 877.461276 735.465777 878.19485 735.839901 880.251734 738.641042 880.899005 739.240602 882.04971 739.69147 882.471635 740.075188 882.941506 740.35818 883.483296 740.478092 883.996318 740.223879 884.231254 739.69147 884.399065 739.139876 884.681946 738.895255 889.006677 739.091911 890.636842 739.940887 890.133409 741.984185 893.269078 743.730101 894.880065 744.26251 896.754754 744.459165 897.512301 744.814104 897.713674 746.387348 898.480811 746.73749 900.000699 746.847809 900.552079 747.092429 901.060306 747.524112 898.346562 748.9007 897.713674 749.931942 898.202724 751.505185 899.008217 752.085559 903.093218 753.865051 905.039826 753.975369 905.859703 753.423775 906.219298 751.845735 906.780266 750.96798 908.146728 750.996759 910.798143 751.505185 910.798143 750.718564 909.422092 750.109411 907.604938 748.085299 906.219298 747.524112 908.654956 746.281825 910.002239 745.898107 911.387879 745.946072 911.167327 746.50726 911.0139 747.624838 910.798143 748.310734 912.831054 747.466554 915.415344 747.428183 917.865386 748.027742 919.44281 749.140524 920.003778 749.514649 926.073744 749.883977 926.836086 750.387607 926.836086 751.548354 926.332653 753.442961 925.89155 753.807493 922.923691 753.865051 922.923691 754.565336 924.501115 754.896292 930.110799 754.944257 931.539591 754.565336 931.539591 753.865051 930.839579 753.865051 930.27861 753.649209 929.209414 753.068836 930.024496 750.684988 930.245048 748.72323 930.839579 747.116412 932.685501 745.946072 933.620448 745.778195 939.31164 745.946072 939.997268 746.089966 941.272633 746.612782 942.197991 746.73749 943.089787 747.221934 943.487739 748.310734 943.665139 749.375551 943.94802 749.883977 946.992593 749.9895 947.74055 749.317993 946.508338 747.524112 946.944647 746.660747 946.90629 745.946072 946.954236 745.049131 947.635069 743.600596 948.426179 743.015426 951.091977 742.809178 952.760499 741.902645 954.500939 741.235935 955.526984 741.18797 957.574279 741.422997 958.528405 741.235935 959.79418 740.252658 961.112695 738.895255 962.714092 737.892792 964.890841 738.132616 965.768254 738.837698 966.123054 739.792196 966.319633 740.693933 966.66005 741.235935 967.547051 741.451776 969.167626 740.703526 970.073806 740.478092 969.512838 738.895255 972.998513 736.098911 973.521125 735.360254 973.343725 735.034094 972.917005 734.602411 972.528642 734.065206 972.38001 733.412886 972.55741 732.328883 972.835497 731.8972 973.166324 731.623801 973.521125 731.062613 974.278672 729.134431 974.101272 728.477314 966.031957 728.880218 965.523729 728.712341 965.705924 727.74825 966.986082 726.678636 969.210778 725.474721 971.066289 725.186933 971.843014 724.328364 972.236172 723.090874 972.969746 721.575188 974.326618 720.400052 975.62116 719.910812 976.584875 719.210526 977.222558 715.795437 977.831472 713.684988 978.737652 711.689655 979.821232 710.490537 981.470575 711.785585 983.599378 712.346772 987.904931 712.135727 987.924109 711.689655 988.326855 710.82629 988.835083 710.293881 989.065224 710.927016 989.271392 711.257973 989.77962 711.435442 990.350177 711.454628 990.824843 711.353902 991.251563 710.82629 991.419374 709.253046 991.668693 708.926886 992.277607 708.926886 992.618024 708.850143 992.809808 708.624708 995.844791 703.324605 995.998219 703.012834 996.050959 702.945683 996.15644 701.075058 995.998219 701.046279 997.091388 699.228416 998.381136 698.182785 999.723624 697.405756 1001.09488 696.307363 1003.02231 697.117967 1005.06961 696.465647 1007.21759 695.324086 1009.44228 694.738916 1009.6964 695.122634 1009.85462 695.933238 1010.18545 696.54239 1010.9382 696.307363 1011.34574 695.856495 1011.42725 695.372051 1011.36971 694.762899 1011.47519 693.880347 1011.45122 688.407571 1011.74849 687.549002 1012.38617 687.069354 1013.01906 685.970962 1013.87249 684.886959 1015.24855 684.397718 1016.45678 684.306585 1017.40612 683.970832 1018.18764 683.471999 1018.96436 682.819679 1020.58973 680.402256 1021.57263 679.53889 1022.71374 680.023334 1023.51923 680.176821 1027.59944 679.639616 1027.23984 680.738009 1027.03847 681.160099 1028.65905 680.929868 1029.02344 679.845865 1029.11933 678.430905 1029.89605 677.289344 1031.30087 676.934405 1031.52142 675.413923 1032.76323 674.027742 1034.37901 673.365828 1036.28246 674.47861 1036.86261 673.620041 1037.67769 673.269899 1038.54072 673.380218 1039.11607 673.562484 1039.59553 673.586466 1040.29075 673.269899 1040.3387 672.857402 1040.20445 671.384885 1040.29075 670.953202 1040.62158 670.809308 1040.96679 670.852476 1041.33118 670.852476 1042.44353 670.075447 1040.76542 664.473166 1040.3387 661.537724 1041.64762 659.120301 1045.30111 655.134431 1046.9984 652.419627 1051.32313 648.755121 1053.19302 646.673451 1053.84988 645.325642 1054.5451 642.71636 1055.0773 641.296604 1056.00266 640.255769 1057.22049 639.320456 1058.16982 638.082966 1058.30886 636.058854 1056.98555 633.219341 1055.14443 631.372699 1054.104 629.1951 1055.27388 625.391496 1052.66082 624.940627 1049.2135 627.185377 1046.79223 627.367643 1032.20705 631.60293 1028.80768 631.487814 1028.00219 631.319938 1027.22546 630.562095 1026.76997 629.578818 1026.20901 628.729842 1025.09186 628.302956 1022.91032 627.919238 1021.31851 627.271714 1012.41014 621.774955 1009.03954 620.527871 1004.0963 617.894607 1003.03669 617.597226 1001.90517 617.697952 1000.91269 618.019316 999.901024 618.201582 998.788677 617.717138 998.011951 616.834586 997.628383 615.82253 997.340707 614.700156 996.813301 613.568188 996.022192 612.647265 994.387232 611.462536 993.629685 610.685507 993.150225 609.778973 992.157742 607.409515 991.500882 606.267954 989.650166 604.085559 989.29057 603.562743 988.993305 602.47874 989.017278 601.89357 989.218651 601.183692 989.928253 597.528779 990.508399 596.516723 993.318036 594.977055 991.136492 593.125616 988.580969 590.43959 986.70628 587.149209 986.423399 583.494296 987.343962 581.930646 991.620747 578.635468 994.47833 573.647135 995.67698 572.759787 994.703676 570.246435 995.31259 567.876977 996.866041 565.977573 998.788677 564.90796 1000.33254 564.883977 1003.37711 565.795307 1004.86344 565.771325 1004.37439 564.22686 1001.82366 559.406404 1001.50242 558.399144 1001.04693 555.492481 1000.10719 552.926368 1000.15034 552.777677 1000.59145 550.931034 1000.73529 550.849494 1000.70652 550.278714 1000.82159 549.966943 1000.83597 549.583225 1000.63939 548.902126 1000.30377 548.316956 998.788677 546.65258 994.588606 544.925849 993.121457 544.796344 988.993305 545.635727 987.401497 545.228027 981.624002 541.865699 978.862311 539.472258 977.399958 536.997278 977.54859 530.387737 977.01639 526.99663 974.806078 525.365828 971.876576 525.126005 970.98478 524.363365 969.973119 522.612652 969.747773 521.523853 969.853254 520.58854 969.7238 519.744361 968.352544 518.554835 966.880601 516.310086 967.882673 514.95748 969.402562 513.691211 972.308091 512.026834 973.060843 511.892533 974.580732 511.950091 975.247182 511.830179 975.947193 511.417682 977.471877 510.256935 978.09997 509.921182 981.039061 510.405626 984.131579 512.074799 987.147383 513.139616 989.875512 511.830179 990.057707 511.091522 989.544684 510.554317 989.170705 509.8972 989.59263 508.90433 990.25908 508.606948 992.234456 508.57817 992.987209 508.4007 994.22901 507.287918 995.67698 504.726601 996.765355 503.685766 999.77157 502.323568 1002.72984 501.508167 1003.39149 501.786362 1004.43192 503.052632 1004.89221 503.239694 1005.44838 502.659321 1007.04978 499.738268 1009.32242 497.814882 1009.32242 495.944257 1008.43062 493.565206 1007.99911 490.121338 1008.43062 489.401867 1011.14916 486.15945 1012.8896 483.051335 1013.61838 481.252658 1013.72386 479.760954 1013.05741 479.257324 1009.47105 477.684081 1008.3587 476.849494 1007.67307 475.496889 1007.08334 474.009982 1006.28743 472.686155 1002.61477 469.956961 998.788677 467.798548 998.160584 466.057428 997.700302 461.107467 997.36468 460.229712 996.434527 458.814752 996.276305 457.841068 996.511241 456.857791 997.474956 454.752139 997.671535 454.07104 997.168101 452.301141 996.127673 451.56728 993.404339 450.876588 992.277607 450.027612 990.378945 448.113819 989.242624 447.725305 987.065875 447.25525 984.783645 445.562095 983.081561 443.029557 982.151408 438.04602 981.930857 435.906793 982.00757 433.767565 982.439084 431.791418 983.522664 430.035909 984.817207 429.249287 987.296016 428.903941 987.296016 428.692896 987.540541 428.165284 987.904931 427.608893 988.298088 427.282733 988.609737 427.330697 989.29057 427.786362 989.59263 427.84392 990.177572 427.733601 992.258429 427.757584 994.061199 427.225175 995.959862 426.270677 997.642767 424.817345 998.788677 422.898756 999.320878 421.267954 1000.00651 419.838605 1000.89351 418.71623 1002.08736 418.155043 1001.50242 417.171766 1001.04693 415.953461 1000.4524 413.756676 999.498278 411.272103 999.191423 409.981851 998.788677 409.694063 993.121457 403.29077 991.194027 402.456184 990.489221 402.739176 989.899485 403.338735 989.242624 403.823179 988.45631 403.722453 987.717941 403.170858 987.679584 402.791937 987.847395 402.278714 987.794655 401.343402 987.924109 401.237879 987.904931 399.981203 987.746709 398.782085 987.521362 398.887607 987.904931 398.278455 988.580969 397.434275 989.170705 396.532538 989.242624 395.587633 987.97685 394.345346 981.28838 392.882422 980.564395 390.85831 981.341121 386.70936 982.784296 382.368551 985.771333 376.598393 983.848697 373.303215 980.880839 370.161525 979.269853 367.384366 979.730134 365.988592 981.950035 363.374514 982.539771 361.345605 982.352782 359.043298 981.566467 357.853772 980.300692 357.215841 967.786781 353.987814 962.210659 353.795955 956.831116 354.870366 949.66798 359.777158 946.944647 360.487037 944.173367 360.616541 941.589076 361.451128 938.880126 363.810993 936.48762 366.967073 934.704028 369.374903 934.253335 371.02489 934.603341 372.243194 935.389656 374.296085 935.418424 374.770936 936.223917 376.766269 936.578717 377.303474 937.470513 377.759139 938.856153 377.106819 939.474657 377.361032 939.896582 380.166969 937.719832 382.445294 932.354673 386.023464 928.077888 391.026186 925.34017 392.431553 922.472998 391.160487 918.656495 391.289992 914.854376 392.201322 912.831054 393.419627 913.943402 390.77677 914.581084 389.568058 914.854376 388.527223 913.372844 386.670988 912.509816 384.997018 912.811876 383.562873 914.854376 382.267825 919.888708 379.792844 920.022957 379.735286 920.329811 379.735286 920.986672 379.960721 921.490105 380.018278 921.969565 379.960721 923.825076 379.385144 924.170288 378.598522 924.107958 377.461758 924.155904 376.171506 924.731256 372.722842 925.004548 371.787529 927.747061 365.7056 927.627196 364.357791 926.605945 362.520742 925.364143 361.201711 920.833245 358.410163 921.792165 357.498833 921.940798 356.693026 921.792165 355.877625 921.792165 354.942313 921.715451 354.558595 921.523667 354.078947 921.346267 353.498574 921.346267 352.860643 921.681889 352.131579 922.636015 351.090744 925.546338 346.068836 928.509402 342.351569 926.476491 340.073243 926.227172 338.456832 927.363492 336.984314 938.630807 326.63832 944.657621 323.352735 945.491882 322.65245 947.692604 320.148691 950.483063 318.66658 951.374859 318.009463 952.290628 316.815141 952.631044 315.803085 952.611866 313.759787 951.974184 313.078688 951.54267 312.469536 951.283761 311.78364 951.422805 311.174488 952.731731 307.203008 953.326262 306.162173 953.800927 304.967851 953.925587 303.265102 953.676268 301.926886 952.535152 299.802048 952.19953 298.68447 953.436538 294.377236 957.516744 292.022167 966.53539 289.187451 972.154663 284.908997 974.043736 282.155821 973.060843 279.863106 974.177985 277.915738 974.9643 277.129116 977.088309 276.376069 977.399958 275.584651 977.702018 275.387996 978.915052 274.750065 978.814365 272.644413 981.321942 271.79064 986.811761 266.691989 988.441926 264.063521 990.867994 261.550169 996.559187 257.353254 996.228359 254.312289 996.765355 251.779751 998.328395 250.139357 999.095531 250.057817 999.541429 249.885144 1000.76405 248.206378 1001.65585 247.702748 1002.50449 247.477314 1003.29081 246.964091 1003.95726 245.601893 1003.06546 244.359606 1001.82366 243.194063 1000.56747 242.172414 999.014023 242.935053 989.041251 243.908737 989.448792 242.330697 990.489221 240.402515 991.726228 238.786103 993.907772 237.491055 994.027637 235.164765 996.228359 234.680321 997.599616 233.898496 998.836623 232.833679 999.46951 231.797641 999.076353 230.296344 998.203735 228.603189 997.983184 227.212212 999.541429 226.727768 1000.30377 226.142598 1001.04693 225.969925 1001.82366 226.142598 1002.58121 226.727768 1004.76755 227.063521 1008.93885 226.32966 1010.91423 226.727768 1012.01219 227.370495 1013.11495 227.543168 1015.42115 227.312938 1013.87249 230.828753 1014.34716 232.852865 1016.1787 233.946461 1018.63833 234.733083 1018.98833 235.011278 1019.21848 235.438164 1019.57328 235.903422 1020.21096 236.181618 1020.78152 236.052113 1023.96034 234.680321 1026.18503 234.205471 1032.00088 234.454887 1034.33106 233.524371 1036.00917 231.337179 1036.26329 230.200415 1036.13383 229.48574 1035.73108 228.910163 1035.4482 228.603189 1035.01669 227.845346 1035.01669 227.087503 1035.9804 226.804511 1037.29892 227.264973 1038.3777 227.946072 1039.47567 228.099559 1040.76542 226.957998 1040.89008 226.727768 1041.01953 226.396811 1041.01953 226.075447 1040.94761 225.773269 1040.3387 224.905108 1040.14691 224.420664 1040.26198 224.027353 1040.76542 223.768343 1041.62844 223.945813 1042.30928 223.720379 1042.66887 223.005704 1042.64011 221.763417 1042.35722 221.7874 1040.94761 220.693803 1040.76542 220.626653 1044.41411 217.63845 1046.43264 216.501685 1049.40049 215.456054 1049.2135 215.436868 1049.42926 215.355328 1049.77447 214.117838 1049.96146 213.666969 1049.77447 212.463054 1049.34296 211.844309 1048.82035 211.364662 1048.30253 210.721934 1046.41346 206.951906 1045.27234 205.35468 1044.03054 204.721545 1043.69971 204.141172 1043.42642 202.793363 1043.20587 200.136116 1043.50313 199.373477 1044.89357 197.915349 1045.36823 197.071169 1045.43056 195.047057 1044.38055 190.691859 1044.60589 188.936349 1045.80454 184.916904 1046.25524 184.302956 1047.39635 183.6986 1047.60731 182.302826 1047.14224 179.976536 1047.1758 179.415349 1047.09429 179.117967 1047.07032 178.787011 1047.14224 178.278584 1047.39635 177.722193 1047.95252 177.189785 1048.30253 176.580633 1048.83953 175.309567 1048.99295 174.753176 1048.89706 172.733861 1049.31899 171.064688 1051.57724 168.68084 1052.35876 167.189137 1052.18616 163.284807 1048.56144 156.876718 1048.30253 151.715712 1048.83953 149.279103 1049.40049 147.346124 1049.99982 146.242935 1050.56079 145.480296 1050.98271 144.487425 1051.1697 142.669562 1051.73547 141.144283 1057.02391 133.695359 1057.90612 131.872699 1058.43832 129.752658 1058.61572 127.19134 1059.19587 124.562873 1060.55753 123.445294 1062.11098 122.605911 1063.2521 120.754472 1063.34799 118.984574 1062.91648 117.320197 1062.37948 115.694192 1062.11098 114.17371 1062.20208 112.523723 1062.82059 109.180581 1063.2521 107.760824 1063.83225 106.55691 1064.38363 105.731916 1064.78637 104.518408 1064.96377 102.120171 1065.39529 100.97861 1066.41654 99.9377755 1068.51657 98.2638061 1068.51657 97.4100337 1067.51929 94.7192118 1067.51929 90.3112523 1068.24328 86.1814882 1071.7769 80.6703396 1072.76938 79.955665 1074.15982 79.5047965 1075.45436 78.3776251 1077.7318 75.6532279 1078.73866 74.996111 1079.86539 73.9025149 1080.73801 72.7129894 1081.12158 71.6913404 1081.22227 69.2691211 1081.68255 68.1515426 1082.60791 67.8157895 1084.99562 67.8014001 1085.6333 67.5807623 1086.10797 67.1394866 1086.28537 66.4583873 1086.46756 65.2640653 1086.87031 64.582966 1087.24429 64.2088411 1087.42169 63.8922738 1088.16006 63.8395126 1091.25257 62.194322 1091.75601 61.7626394 1092.79644 59.9975369 1096.61773 49.5076484 1099.23079 44.5528908 1101 42.5143894 1100.00752 41.6078558 1091.75601 39.8907182 1078.46058 32.7919367 1076.94548 32.6096707 1072.16526 33.118097 1065.17473 31.093985 1064.25417 31.3529946 1062.28359 32.4178118 1061.24796 32.7008037 1060.44246 32.5665025 1058.66367 31.9333679 1057.72872 31.7846772 1056.68829 32.0101115 1055.69581 32.4178118 1054.68894 32.6672284 1053.52865 32.4178118 1052.74713 31.7558984 1051.92725 30.081929 1051.32313 29.333679 1049.45803 28.3599948 1045.77578 27.7028779 1043.95862 26.5661136 1042.84627 25.1415608 1040.94761 22.0910034 1039.77293 20.8391237 1039.92636 20.407441 1040.13253 20.1292455 1040.76542 19.7311382 1040.20445 17.8749028 1038.68935 17.3185118 1035.03587 17.0690952 1034.69066 15.6445424 1033.07008 15.4958517 1031.0947 16.0954109 1029.69948 16.8868291 1029.29673 17.5199637 1028.68781 19.395385 1028.26589 20.1052632 1027.62341 20.3834586 1025.93571 20.6136894 1025.16858 20.8679025 1024.64117 21.4914441 1023.74937 23.3284936 1023.27471 23.8369199 1022.74251 23.7553798 1020.48425 22.6905626 1013.2444 22.6090226 1011.92589 22.1821364 1010.61696 21.4770547 1007.39499 19.1363754 1006.94429 19.0884107 1006.18675 19.8462536 1006.2299 20.5609282 1006.51278 21.2180451 1006.38333 21.875162 1003.79904 23.4963702 1001.95311 22.0334457 1000.9894 18.5320197 1001.01337 14.0089448 999.215396 13.9274047 993.974897 10.934405 993.035155 10.8144931 990.604291 11.0399274 987.089848 10.2485092 986.250793 10.4643505 985.771333 12.2246565 986.409015 14.3015297 986.70628 16.4359606 985.263105 18.3641431 984.208292 18.6135598 980.947963 17.3904589 977.188995 17.3376977 976.196513 16.9347939 975.1417 15.1409126 975.367047 13.5676692 975.80815 11.9416645 975.271155 9.9175525 974.906765 9.9175525 973.794417 10.651413 973.420438 10.7089707 973.195092 10.2485092 973.03687 9.2364532 972.940978 8.96305419 972.658096 8.40186674 971.996441 6.04200156 971.65123 5.66787659 970.476553 5.24578688 970.02586 4.9100337 969.944352 4.3776251 970.107368 3.08737361 969.973119 2.53098263 964.411381 -2.83627171 962.992179 -4.56779881 962.455184 -6.05470573 962.939438 -7.22504537 964.411381 -7.30178896 964.794949 -8.3426238 964.512068 -9.10046668 960.431862 -13.4268862 959.84692 -14.295048 960.009937 -14.3430127 959.97158 -15.0816697 959.746234 -16.1416904 959.247595 -17.2065076 957.799625 -18.5926886 950.099495 -22.4442572 949.164547 -22.6025408 948.46933 -22.3387348 946.891906 -21.2547317 946.00011 -21.0820586 945.290509 -21.1540057 943.59322 -21.3266788 941.36373 -22.5449831 937.216399 -25.6626912 934.910196 -26.5836142 932.532073 -26.8234379 927.718293 -26.3006222 928.255288 -25.1063002 925.89155 -24.880866 925.282635 -24.6410423 924.865505 -23.8640135 924.865505 -23.0246305 924.659337 -22.3387348 923.642881 -21.9646098 922.832594 -20.722323 921.585997 -20.2618616 914.446835 -19.8397718 912.989276 -19.3361421 911.85775 -23.0246305 910.246764 -24.6218564 904.939139 -25.892922 902.810336 -26.8761991 901.362366 -28.2479907 898.706157 -31.7638061 897.819156 -31.9892403 897.747237 -32.0180192 895.89652 -33.1355976 894.985546 -33.2842883 894.103339 -32.8046409 893.005375 -31.3609023 892.070428 -30.9627949 891.974536 -30.9100337 890.142998 -31.226601 888.340228 -32.1235416 886.479922 -32.5504278 886.441565 -32.5504278 884.379886 -31.4856106 883.363431 -30.1186155 883.363431 -30.0898367 883.181236 -29.1785066 883.109317 -29.0633912 882.903149 -28.6748768 882.342181 -28.6077262 881.666142 -28.5022038 880.932568 -28.7036557 878.305126 -29.9171636 877.216751 -29.4375162 876.732496 -29.2072855 875.720835 -28.4158673 874.632461 -27.5572984 872.95435 -26.5836142 872.450917 -26.3006222 870.633763 -26.7754732 870.216632 -27.6628208 870.12074 -27.917034 870.202249 -29.0633912 870.48513 -30.2768991 870.48513 -31.6103189 870.144713 -32.8046409 866.102864 -40.1240602 864.52544 -41.5198341 861.917177 -42.4839253 861.51443 -42.723749 860.987024 -43.0595022 860.483591 -43.1362458 860.445234 -43.1362458 860.147968 -42.814882 859.788373 -42.1002074 859.332886 -41.4430905 859.189048 -41.3951257 858.747945 -41.2416386 857.362305 -41.5198341 856.925996 -42.0282603 856.925996 -42.0426497 856.834899 -42.632616 856.748596 -43.2129894 857.012299 -45.0404459 857.012299 -45.0692248 857.112985 -45.1171895 857.683543 -45.4913145 857.812997 -45.678377 858.067111 -45.951776 857.486964 -47.8895515 855.866389 -49.8752917 854.097181 -51.6308011 853.08552 -51.5972258 852.299205 -51.5732435 850.951922 -51.194322 848.497086 -50.5132227 846.57445 -51.0887996 845.030589 -52.2303604 844.623048 -52.6044854 843.788787 -53.4246824 841.717519 -56.4320716 840.221603 -58.6144672 839.205147 -59.5689655 838.533903 -59.7848068 836.21811 -60.4371273 834.554384 -61.4012186 831.433098 -64.4997407 830.066636 -65.2240083 829.908414 -65.3295307 829.054975 -65.281566 828.144001 -65.2240083 826.499452 -64.6436349 824.504898 -63.9529427 823.10008 -63.7275084 822.620619 -63.6555613 821.282925 -63.8282344 820.419897 -63.9529427 820.419897 -63.986518 819.66235 -64.9458128 819.686323 -67.1953591 819.686323 -69.8142339 819.48495 -70.5432979 819.48495 -70.5672803 818.650689 -71.9342753 818.478083 -72.5913923 818.612332 -73.3828105 819.384263 -74.2461758 819.437004 -74.3948665 819.66235 -74.9272751 819.758242 -75.3349754 820.122632 -76.5245009 820.319211 -77.0233342 820.549351 -77.6037075 820.750725 -78.721286 820.678806 -79.5079077 820.592503 -80.4240342 819.336317 -82.7791029 819.29796 -82.8078818 819.29796 -82.8222712 816.986962 -83.7671766 815.337619 -84.4482759 815.308852 -84.4482759 814.196504 -86.270936 814.580072 -88.3478092 816.876686 -94.0987814 817.782866 -96.4058854 817.821223 -96.655302 817.869169 -97.7968628 817.744509 -98.880866 817.821223 -99.7202489 817.835607 -100.051206 818.27671 -101.039279 819.413031 -103.485481 819.413031 -103.523853 819.945232 -103.648561 820.80826 -102.68447 820.822644 -102.665284 820.956893 -103.998704 821.028812 -104.962795 821.479504 -107.644024 821.508272 -108.253176 821.584985 -109.951128 820.80826 -110.958387 818.195202 -110.416386 817.226692 -110.814493 816.876686 -112.661136 816.852713 -112.761862 814.594456 -111.73062 805.633345 -102.665284 805.14909 -101.624449 804.923744 -100.329401 805.081966 -99.7730101 805.129912 -99.5475758 805.249777 -99.2645839 805.431972 -98.9192377 805.489507 -98.4827586 805.532658 -98.0031112 805.307312 -96.6313197 804.866209 -93.8445683 804.295651 -91.7676951 804.175786 -91.5422608 803.538104 -90.2759917 802.900422 -89.8778844 802.622335 -89.6908219 799.103097 -89.1296344 796.187979 -87.6667099 787.404269 -83.325901 784.930254 -82.8750324 773.859518 -85.9159969 771.701947 -86.5203526 769.275879 -86.1750065 765.281975 -85.5898367 764.375796 -85.8392533 764.150449 -85.9159969 759.446945 -88.4533316 759.494891 -88.4533316 760.113395 -88.4005704 760.051065 -89.5900959 760.007913 -90.2951776 759.787362 -91.3072336 759.552426 -92.3049002 759.168858 -92.4487944 759.14968 -92.4487944 759.50448 -93.993259 759.873664 -94.8326419 759.912021 -94.9381644 759.92161 -94.9525538 760.53532 -95.7199896 761.465472 -96.5785585 762.074387 -97.1637283 763.431259 -98.132616 764.011406 -98.5307234 765.138137 -99.1063002 766.034728 -99.5475758 766.044317 -100.156728 766.044317 -100.396552 765.473759 -101.451776 765.1717 -102.152061 764.965532 -102.665284 763.551124 -108.310734 762.707274 -108.73762 761.820273 -108.588929 760.151751 -107.831086 759.624345 -108.080503 758.953101 -108.430646 759.120912 -110.387607 759.14968 -110.785714 760.17093 -114.085688 760.770255 -116.033057 761.211358 -118.416904 761.566159 -119.376199 761.594927 -119.481722 762.481928 -120.771973 764.481277 -122.311641 764.601142 -122.465128 765.291565 -123.25175 765.40184 -123.932849 765.497732 -124.618745 764.98471 -125.48211 763.934692 -126.388644 763.23468 -126.844309 762.81755 -127.103319 762.064798 -127.376718 761.024369 -126.925849 761.000396 -126.925849 760.966834 -126.086466 761.024369 -125.606819 761.081904 -125.17034 761.072315 -125.17034 760.846969 -124.944905 760.449017 -124.57078 759.422972 -125.050428 758.905155 -125.299844 757.15992 -129.084262 756.622924 -130.21623 756.613335 -130.245009 754.877689 -131.784677 753.726985 -132.451387 753.094097 -132.825512 750.308434 -135.909645 750.236515 -135.94322 748.66868 -136.701063 747.891954 -136.600337 746.899472 -136.499611 743.361056 -135.003111 741.553491 -134.245268 739.664417 -134.245268 739.304822 -134.398756 738.168502 -134.955146 737.353419 -135.501945 736.710943 -135.967202 734.989681 -136.849754 731.494416 -137.257454 727.836135 -137.008037 727.347085 -136.796992 726.699814 -136.566762 726.01898 -135.78014 724.508681 -133.233212 724.240183 -132.413015 724.15388 -132.13482 724.067577 -131.986129 723.923739 -131.736712 723.544966 -131.477703 723.405922 -131.612004 723.276468 -131.535261 722.945641 -130.671895 719.99696 -133.463443 719.268181 -138.801919 719.249003 -144.927016 718.544196 -150.030464 717.177735 -152.505445 715.514008 -154.093078 713.677675 -155.009204 711.774218 -155.421701 706.682351 -155.440887 706.356318 -155.440887 705.325479 -156.222712 705.3063 -156.222712 706.054258 -157.570521 706.126177 -157.695229 706.260426 -158.75525 705.709047 -159.441146 705.349452 -159.541872 704.500807 -159.805678 703.685725 -159.74812 703.306951 -159.724138 702.611734 -159.244491 702.448718 -159.134172 702.146658 -158.841587 701.624046 -158.304382 701.317192 -158.074151 700.473342 -157.445813 697.59658 -156.380996 696.800677 -156.1028 696.023951 -155.992481 694.762971 -155.848587 693.295823 -156.256287 689.623157 -158.179673 688.51081 -159.033446 687.374489 -160.539539 687.206678 -160.731397 686.775164 -162.232694 686.631326 -166.434405 684.421014 -173.85455 683.740181 -177.67734 684.349095 -178.818901 684.910064 -179.888514 684.536085 -181.149987 683.965527 -183.049391 683.356613 -184.133394 683.279899 -184.262899 682.172346 -184.627431 682.172346 -184.64182 680.988079 -184.795307 680.32163 -185.581929 679.281201 -188.090485 678.355843 -189.793233 677.953096 -190.488722 676.725678 -192.6951 675.301682 -194.042909 673.57083 -194.575318 673.120138 -194.695229 669.083083 -193.438553 666.517971 -192.623153 665.654943 -192.378533 662.054197 -191.232175 661.018563 -190.575058 660.112383 -190.018667 659.374014 -189.208063 658.597289 -188.36868 657.537682 -186.54602 656.065739 -183.9895 654.953391 -183.126134 654.589001 -183.231657 653.812276 -183.385144 653.63967 -183.40433 653.380762 -183.524242 653.256102 -183.610578 647.392304 -186.291807 646.543659 -186.665932 646.088172 -187.054446 644.999798 -187.96098 644.831987 -188.28714 644.549105 -188.795567 643.422374 -191.462406 642.947708 -192.335364 642.597702 -192.675914 639.821628 -195.337957 639.270248 -196.321234 639.01134 -197.227768 638.996956 -197.227768 638.579826 -197.995204 637.477067 -198.57078 637.270899 -198.604356 636.681163 -198.65232 635.127712 -198.446072 634.43729 -198.474851 633.209872 -198.724268 632.701644 -198.954498 632.586573 -199.012056 632.140675 -199.769899 631.809848 -200.551724 631.42628 -201.439072 631.224906 -201.65971 631.042712 -201.870754 630.783803 -201.995463 630.026256 -202.379181 629.820088 -202.729323 629.762553 -202.830049 629.762553 -202.858828 629.80091 -203.137024 629.858445 -203.443998 630.500922 -204.935701 630.587224 -205.799067 629.776937 -208.657765 628.937881 -211.621986 629.417342 -212.835494 630.136532 -213.550169 631.36395 -214.763676 631.651626 -215.243324 631.848205 -215.574281 631.589296 -218.212341 630.256397 -220.212471 630.251602 -220.212471 627.264565 -223.526834 626.42551 -226.112134 626.281672 -227.148172 625.586455 -231.983018 625.447411 -232.337957"></polygon>
                        <g id="logotype" transform="translate(409.000000, 731.000000)" fill="#F44647">
                            <path d="M55.0368467,27.5411272 L52,26.7274066 L52.7198917,24.0407343 L50.5847843,20.8150718 L43.7431855,31.1511743 L32.4152157,14.0371839 L26.9575546,22.2824707 L31.1345215,22.2824707 L20.526123,32 L20.5270794,31.9974587 L17.7307271,36.2221121 L14.7398132,31.7035201 L32.4152157,5 L43.7431855,22.1139904 L50.5847843,11.7778879 L56.9095017,21.3330999 L56,24.7274066 L59.8367123,25.7554506 L68.2601868,38.4814081 L65.2692729,43 L55.0368467,27.5411272 Z" id="Combined-Shape"></path>
                        </g>
                        <circle id="Oval" fill="#F44647" cx="450" cy="775" r="4"></circle>
                    </g>
                </g>
            </g>
        </g>
    </g>
</svg>