<?xml version="1.0" encoding="UTF-8"?>
<svg width="34px" height="24px" viewBox="0 0 34 24" version="1.1" xmlns="http://www.w3.org/2000/svg" xmlns:xlink="http://www.w3.org/1999/xlink">
    <!-- Generator: Sketch 52.6 (67491) - http://www.bohemiancoding.com/sketch -->
    <title>Menu-2</title>
    <desc>Created with Sketch.</desc>
    <g id="Page-1" stroke="none" stroke-width="1" fill="none" fill-rule="evenodd">
        <g id="iPhone-8" transform="translate(-309.000000, -48.000000)" fill="#FFFFFF">
            <g id="Hero">
                <g id="Header" transform="translate(18.000000, 40.000000)">
                    <g id="Menu-2" transform="translate(291.000000, 8.000000)">
                        <path d="M1.72,3.4 L31.72,3.4 C32.5484271,3.4 33.22,2.72842712 33.22,1.9 C33.22,1.07157288 32.5484271,0.4 31.72,0.4 L1.72,0.4 C0.891572875,0.4 0.22,1.07157288 0.22,1.9 C0.22,2.72842712 0.891572875,3.4 1.72,3.4 L1.72,3.4 Z" id="Shape"></path>
                        <path d="M31.72,10.4 L1.72,10.4 C0.891572875,10.4 0.22,11.0715729 0.22,11.9 C0.22,12.7284271 0.891572875,13.4 1.72,13.4 L31.72,13.4 C32.5484271,13.4 33.22,12.7284271 33.22,11.9 C33.22,11.0715729 32.5484271,10.4 31.72,10.4 L31.72,10.4 Z" id="Shape"></path>
                        <path d="M31.72,20.4 L1.72,20.4 C0.891572875,20.4 0.22,21.0715729 0.22,21.9 C0.22,22.7284271 0.891572875,23.4 1.72,23.4 L31.72,23.4 C32.5484271,23.4 33.22,22.7284271 33.22,21.9 C33.22,21.0715729 32.5484271,20.4 31.72,20.4 L31.72,20.4 Z" id="Shape"></path>
                    </g>
                </g>
            </g>
        </g>
    </g>
</svg>