<?xml version="1.0" encoding="UTF-8"?>
<svg width="32px" height="32px" viewBox="0 0 32 32" version="1.1" xmlns="http://www.w3.org/2000/svg" xmlns:xlink="http://www.w3.org/1999/xlink">
    <!-- Generator: Sketch 52.6 (67491) - http://www.bohemiancoding.com/sketch -->
    <title>Menu-2</title>
    <desc>Created with Sketch.</desc>
    <g id="Page-1" stroke="none" stroke-width="1" fill="none" fill-rule="evenodd">
        <g id="iPhone-8-Menu" transform="translate(-311.000000, -42.000000)" fill="#000000">
            <g id="Header" transform="translate(18.000000, 40.000000)">
                <g id="Menu-2" transform="translate(293.000000, 2.000000)">
                    <g id="Close-3">
                        <path d="M18.09,16.4 L30.79,3.45 C31.3363875,2.85396147 31.3120139,1.93210844 30.7348934,1.36577528 C30.157773,0.799442127 29.2356242,0.792464717 28.65,1.35 L15.97,14.28 L2.77,1.33 C2.39209662,0.933057675 1.82778818,0.773819103 1.29813048,0.914662598 C0.768472778,1.05550609 0.357793644,1.47400769 0.226967869,2.00622831 C0.0961420948,2.53844893 0.265998707,3.09965269 0.67,3.47 L13.85,16.4 L0.67,29.33 C0.112464717,29.9156242 0.119442127,30.837773 0.685775281,31.4148934 C1.25210844,31.9920139 2.17396147,32.0163875 2.77,31.47 L15.97,18.52 L28.65,31.45 C29.2356242,32.0075353 30.157773,32.0005579 30.7348934,31.4342247 C31.3120139,30.8678916 31.3363875,29.9460385 30.79,29.35 L18.09,16.4 Z" id="Shape"></path>
                    </g>
                </g>
            </g>
        </g>
    </g>
</svg>