<?xml version="1.0" encoding="UTF-8"?>
<svg width="147px" height="27px" viewBox="0 0 147 27" version="1.1" xmlns="http://www.w3.org/2000/svg" xmlns:xlink="http://www.w3.org/1999/xlink">
    <!-- Generator: Sketch 52.6 (67491) - http://www.bohemiancoding.com/sketch -->
    <title>Logo Black</title>
    <desc>Created with Sketch.</desc>
    <g id="Page-1" stroke="none" stroke-width="1" fill="none" fill-rule="evenodd">
        <g id="Desktop-HD" transform="translate(-200.000000, -3935.000000)" fill="#000000">
            <g id="Footer" transform="translate(0.000000, 3834.000000)">
                <g id="Logo-Black" transform="translate(186.000000, 96.000000)">
                    <g id="logotype">
                        <path d="M55.0368467,27.5411272 L52,26.7274066 L52.7198917,24.0407343 L50.5847843,20.8150718 L43.7431855,31.1511743 L32.4152157,14.0371839 L26.9575546,22.2824707 L31.1345215,22.2824707 L20.526123,32 L20.5270794,31.9974587 L17.7307271,36.2221121 L14.7398132,31.7035201 L32.4152157,5 L43.7431855,22.1139904 L50.5847843,11.7778879 L56.9095017,21.3330999 L56,24.7274066 L59.8367123,25.7554506 L68.2601868,38.4814081 L65.2692729,43 L55.0368467,27.5411272 Z" id="Combined-Shape"></path>
                    </g>
                    <path d="M86.2460938,25 L85.5869141,22.4775391 L81.7197266,22.4775391 L81.0605469,25 L77.2636719,25 L81.4033203,12.3173828 L86.0791016,12.3173828 L90.21875,25 L86.2460938,25 Z M83.6181641,15.2441406 L82.3964844,19.8496094 L84.9101562,19.8496094 L83.6884766,15.2441406 L83.6181641,15.2441406 Z M95.5418611,15.0683594 L95.5418611,18.2851562 L97.0799471,18.2851562 C98.1258455,18.2851562 98.7674471,17.6435547 98.7674471,16.6855469 C98.7674471,15.7451172 98.0906892,15.0683594 97.0887361,15.0683594 L95.5418611,15.0683594 Z M95.5418611,20.7460938 L95.5418611,25 L91.8152986,25 L91.8152986,12.3173828 L97.4490877,12.3173828 C100.832877,12.3173828 102.573111,13.9082031 102.573111,16.6240234 C102.573111,18.1181641 101.852408,19.5595703 100.52526,20.1923828 L102.933463,25 L98.7674471,25 L96.7635408,20.7460938 L95.5418611,20.7460938 Z M110.972394,25 L104.530011,25 L104.530011,12.3173828 L110.761457,12.3173828 C113.35423,12.3173828 114.874738,13.5039062 114.874738,15.4814453 C114.874738,16.9404297 113.767316,18.0390625 112.299543,18.2236328 L112.299543,18.2939453 C114.01341,18.3378906 115.446027,19.6298828 115.446027,21.3085938 C115.446027,23.5322266 113.688214,25 110.972394,25 Z M108.256574,14.875 L108.256574,17.3974609 L109.69798,17.3974609 C110.655988,17.3974609 111.253644,16.8964844 111.253644,16.1318359 C111.253644,15.3496094 110.691144,14.875 109.750714,14.875 L108.256574,14.875 Z M108.256574,22.4423828 L109.847394,22.4423828 C110.998761,22.4423828 111.657941,21.9238281 111.657941,20.9658203 C111.657941,20.0605469 110.989972,19.5332031 109.873761,19.5332031 L108.256574,19.5332031 L108.256574,22.4423828 Z M120.857029,25 L117.130466,25 L117.130466,12.3173828 L120.857029,12.3173828 L120.857029,25 Z M122.89303,25 L122.89303,22.6621094 L128.544398,15.3496094 L128.544398,15.2792969 L122.945765,15.2792969 L122.945765,12.3173828 L132.886194,12.3173828 L132.886194,14.6464844 L127.252405,21.9677734 L127.252405,22.0380859 L133.097132,22.0380859 L133.097132,25 L122.89303,25 Z M141.039384,12.0976562 C144.959306,12.0976562 147.429032,14.6113281 147.429032,18.6630859 C147.429032,22.7148438 144.959306,25.2197266 141.039384,25.2197266 C137.110673,25.2197266 134.649735,22.7148438 134.649735,18.6630859 C134.649735,14.6113281 137.119462,12.0976562 141.039384,12.0976562 Z M141.039384,15.0683594 C139.48372,15.0683594 138.44661,16.4658203 138.44661,18.6630859 C138.44661,20.8515625 139.474931,22.2490234 141.039384,22.2490234 C142.603837,22.2490234 143.632157,20.8515625 143.632157,18.6630859 C143.632157,16.4658203 142.595048,15.0683594 141.039384,15.0683594 Z M152.848823,25 L149.333198,25 L149.333198,12.3173828 L152.2248,12.3173828 L157.120307,18.8916016 L157.19062,18.8916016 L157.19062,12.3173828 L160.706245,12.3173828 L160.706245,25 L157.8498,25 L152.919135,18.3203125 L152.848823,18.3203125 L152.848823,25 Z" id="ARBIZON"></path>
                </g>
            </g>
        </g>
    </g>
</svg>