<?xml version="1.0" encoding="UTF-8"?>
<svg width="245px" height="142px" viewBox="0 0 245 142" version="1.1" xmlns="http://www.w3.org/2000/svg" xmlns:xlink="http://www.w3.org/1999/xlink">
    <!-- Generator: Sketch 52.6 (67491) - http://www.bohemiancoding.com/sketch -->
    <title>Background</title>
    <desc>Created with Sketch.</desc>
    <g id="Page-1" stroke="none" stroke-width="1" fill="none" fill-rule="evenodd">
        <g id="iPhone-8" transform="translate(-130.000000, -667.000000)">
            <g id="Section1" transform="translate(32.000000, 667.000000)">
                <g id="Background">
                    <g id="Fill-1">
                        <polygon fill="#F0ECE3" points="235.062561 -256.410194 234.598621 -256.078166 233.311505 -255.464637 230.733662 -254.789754 228.839994 -255.024339 228.574628 -254.979227 228.244274 -254.798777 222.821416 -253.028564 217.750575 -252.389771 216.665642 -251.749174 216.106026 -251.864662 210.049539 -249.212049 209.074724 -248.298973 208.154066 -247.024996 207.628749 -246.481842 207.027613 -246.250867 206.368711 -246.191318 206.099734 -246.081244 205.327103 -245.460496 205.337935 -245.21328 205.406533 -244.516743 205.919213 -242.679764 206.119591 -241.537516 205.948096 -240.590154 205.588859 -239.859332 204.919125 -237.885211 204.763877 -236.999202 204.778319 -235.972442 205.108673 -233.844938 205.242258 -231.522548 205.415559 -230.831425 206.269424 -229.508728 205.289194 -228.767079 205.126725 -226.747845 205.101452 -224.42365 204.529199 -222.754489 204.529199 -222.413439 206.269424 -221.029388 206.269424 -220.724428 205.061737 -220.982471 204.410055 -219.65436 204.142884 -217.732569 204.092338 -216.148219 204.397419 -215.740403 205.749523 -215.08537 206.056409 -214.453795 206.258593 -213.901618 206.753221 -213.511847 207.385045 -213.30072 207.998818 -213.291698 207.998818 -212.921776 207.350746 -212.921776 207.524047 -212.550049 207.690126 -212.328096 207.904946 -212.254111 208.23169 -212.279374 208.23169 -211.936519 207.969934 -211.680281 207.659438 -211.653213 204.529199 -213.181624 203.440656 -213.035459 202.366555 -211.577424 201.658912 -208.977142 201.389935 -208.556693 201.016256 -208.240906 199.34463 -206.185582 195.225135 -202.856282 193.965097 -201.457795 193.205102 -201.188925 192.434277 -200.580809 179.424111 -196.367305 176.701851 -196.407004 174.232321 -195.501145 172.990334 -194.653031 171.898181 -194.319199 167.93935 -191.948087 167.619828 -191.489745 163.491307 -189.573367 163.17359 -189.266602 162.832405 -189.262993 161.251039 -187.981799 160.778073 -187.424209 159.512619 -183.134916 157.891538 -180.161102 157.792252 -179.798398 157.757953 -179.275093 157.859045 -178.867276 158.304932 -178.558707 158.402413 -178.260965 158.67139 -177.797209 159.303214 -177.414655 160.027105 -177.178266 160.584915 -177.138567 161.227571 -177.138567 163.491307 -176.368046 166.105255 -176.005341 168.713786 -176.387895 170.957665 -177.797209 170.432349 -177.073605 169.827602 -176.530451 168.372601 -175.786997 160.505486 -173.993325 158.402413 -172.481155 157.651445 -171.288382 157.368027 -171.059211 156.645942 -170.866129 155.781245 -170.099217 154.304581 -169.402681 149.240961 -168.191862 148.437641 -167.468258 145.477093 -169.258321 143.892117 -169.633657 142.931744 -170.261622 142.377543 -170.499816 140.218509 -170.499816 138.857379 -171.097105 138.086554 -171.281164 136.933023 -170.640567 136.158587 -170.71816 134.804678 -171.125977 129.387235 -171.454396 125.646835 -172.890777 121.482211 -173.107317 120.935231 -172.852882 120.404499 -172.270029 120.169821 -171.604169 120.50198 -171.125977 120.50198 -170.797558 119.884598 -170.620717 119.550633 -170.822821 119.30693 -171.163871 118.97116 -171.454396 118.617339 -171.40387 118.276153 -171.181916 118.014398 -171.147631 117.913306 -171.633041 117.978293 -171.782815 118.117295 -172.030031 118.261712 -172.405367 118.324894 -172.937694 118.216581 -173.993325 117.9115 -174.729561 115.503347 -177.775555 115.028576 -179.114493 114.485207 -179.97163 114.086256 -180.931623 114.245114 -182.07748 114.445493 -182.324696 114.72169 -182.41853 115.422113 -182.440184 115.548478 -182.649506 115.627907 -183.102435 115.765103 -183.562582 116.566617 -184.132804 116.429421 -184.980918 115.732609 -186.456998 115.582777 -187.270827 115.458217 -187.613682 115.194656 -187.752628 111.4001 -188.449164 110.824237 -188.396834 109.36743 -187.934882 108.907101 -187.581201 108.094756 -186.478652 107.598322 -186.013091 107.063979 -185.762266 106.68669 -185.774897 106.033203 -186.031136 105.661329 -186.085271 105.320144 -185.982415 104.885088 -185.506027 104.592644 -185.399562 104.363382 -185.506027 104.289368 -185.740612 104.274926 -185.982415 104.26229 -186.085271 103.75683 -186.056399 101.397418 -186.870228 99.3015664 -187.184211 98.6119753 -187.424209 98.4549218 -187.44045 98.1065158 -187.375488 97.9620988 -187.424209 97.8249027 -187.649772 97.7057587 -188.241647 97.5505104 -188.449164 97.2382087 -188.584502 96.3536546 -188.449164 95.9835861 -188.553825 95.3571774 -189.012168 95.0575122 -189.116829 94.2072571 -189.003146 94.0682558 -188.631419 94.1314382 -187.909619 93.8823189 -186.75474 95.2669168 -186.162865 96.2868618 -185.966174 96.5684749 -185.628733 96.7453857 -185.152345 96.9999206 -184.609191 97.232793 -183.921677 97.2436243 -183.113262 97.0992073 -181.592069 96.8970235 -181.104855 96.0034434 -180.285612 95.8030649 -179.608925 95.9709496 -179.320206 96.790516 -178.320513 97.0992073 -177.797209 97.2147409 -177.425482 97.232793 -177.167439 97.2797286 -176.938267 97.7382525 -176.091957 97.870033 -175.786997 97.9620988 -175.45136 97.9837614 -174.754824 97.8646174 -173.107317 97.9620988 -172.481155 98.2635693 -172.134692 98.6390535 -172.174391 99.0560575 -172.365668 99.4911137 -172.481155 99.3972426 -172.289879 99.3412811 -172.149128 99.2564361 -171.813491 99.8792343 -171.438155 100.590488 -170.660416 101.175377 -170.290494 101.431717 -171.125977 101.670005 -171.125977 102.081593 -170.135307 102.081593 -169.830347 101.431717 -169.830347 101.673615 -169.077871 102.061736 -168.541935 102.966147 -167.830962 102.823536 -167.753369 102.738691 -167.690211 102.531091 -167.468258 103.000446 -166.894428 103.522153 -165.126019 104.024002 -164.532339 104.274926 -165.450829 104.948271 -165.429175 105.766032 -165.028576 106.437571 -164.828277 106.437571 -164.532339 105.296677 -164.866171 104.722619 -164.828277 104.47711 -164.359107 104.525851 -163.492948 104.663047 -162.549195 104.872452 -161.646945 105.143234 -160.87462 105.300287 -161.112814 105.379716 -161.183189 105.769642 -160.87462 105.15226 -160.446954 104.935634 -160.149211 104.708177 -159.532073 104.558345 -158.909521 104.527656 -158.375389 104.695541 -158.016294 105.143234 -157.918851 105.004232 -157.433441 104.932024 -156.928181 104.904946 -155.776911 105.007843 -155.365485 105.226273 -154.890902 105.451925 -154.614814 105.553017 -154.804286 105.800331 -155.54774 106.396051 -155.892399 107.107305 -155.892399 107.710246 -155.596461 107.710246 -155.300523 106.94303 -155.67225 106.518805 -155.435861 106.314816 -154.719475 105.971826 -151.935133 106.101801 -151.659045 106.477285 -151.565211 106.637949 -151.296341 106.610871 -150.870479 106.437571 -150.325521 106.159568 -150.724315 105.950163 -150.238905 105.695629 -147.941778 105.484419 -147.391406 105.148649 -146.963739 104.708177 -146.754418 104.708177 -146.400736 105.469977 -146.200437 105.856292 -145.458788 105.989878 -144.323758 106.006125 -142.997451 106.273296 -141.864226 107.450295 -140.819421 107.710246 -139.693414 107.87452 -139.399281 108.277082 -139.139433 109.36021 -138.827255 109.5299 -138.635978 109.636407 -138.367108 109.676122 -138.062147 109.760967 -137.841999 109.932462 -137.919592 110.082295 -138.101846 110.082295 -138.217334 111.299008 -138.101846 111.99943 -137.735533 112.501279 -136.909073 111.340528 -137.34937 107.948534 -136.587872 105.444704 -136.909073 104.939245 -136.793585 103.419256 -135.96532 100.920842 -135.577353 98.6119753 -135.615247 97.2761181 -135.983365 96.5558384 -136.793585 96.5468123 -137.91057 97.3302745 -139.188155 97.104623 -139.531009 97.0035311 -139.78003 97.0089467 -139.989352 97.0992073 -140.196869 93.8823189 -139.538227 94.0790871 -139.188155 92.8912573 -139.188155 92.6060338 -139.031163 92.5500722 -138.704549 92.5500722 -138.367108 92.4363438 -138.217334 91.9579625 -138.072974 91.5896992 -137.717488 91.3514112 -137.291626 91.2539297 -136.909073 91.5572054 -136.328024 92.1457046 -134.907884 92.4363438 -134.631795 92.8009967 -134.610141 93.1295454 -134.500067 93.4147689 -134.213152 93.6440309 -133.657366 93.2649363 -133.94789 93.1295454 -134.088641 92.9977649 -134.306986 92.7847498 -134.306986 92.9038938 -133.547292 93.3660282 -132.699177 93.1927278 -132.325646 94.0790871 -131.708508 93.0934411 -131.067911 92.7847498 -130.735883 92.9093095 -131.782492 92.7143465 -132.423089 91.902001 -133.657366 91.9994824 -133.841425 92.1348734 -134.306986 91.7395319 -134.45315 91.4633344 -134.7942 91.3062809 -135.270588 91.2539297 -135.786675 90.5860012 -137.022756 90.5065718 -137.230274 88.9938039 -137.0805 87.5857382 -136.587872 87.8402732 -135.896749 88.0117684 -135.577353 88.2320043 -135.281415 87.8312471 -135.705472 87.4449317 -135.74878 87.0730579 -135.470887 86.7210415 -134.925929 87.0026547 -134.678712 87.1344352 -134.631795 87.1344352 -134.306986 86.6614695 -134.03992 86.3780512 -134.306986 86.2101664 -134.907884 86.0729703 -135.615247 86.0892172 -135.023372 85.9790993 -134.537961 85.7534477 -134.175257 85.4068469 -133.982176 85.3454697 -134.48924 85.2299361 -135.023372 85.0187263 -135.442015 84.6612942 -135.615247 84.5529815 -135.862464 84.3814863 -136.975839 84.2316537 -137.230274 83.5077635 -136.88381 82.8705236 -136.212536 82.2802191 -135.806524 81.7169929 -136.259453 82.5979365 -137.230274 82.7604056 -137.500948 82.874134 -137.777037 83.0149406 -138.026057 83.247813 -138.217334 83.247813 -138.567407 82.8326141 -138.498836 82.5112863 -138.643196 82.2856348 -138.998682 82.168296 -139.538227 81.7332398 -138.68109 80.9064526 -137.863653 79.9551056 -137.230274 79.1265132 -136.909073 78.8503157 -137.56591 78.1607246 -137.665158 76.7544641 -137.230274 77.3700416 -136.937945 77.6354078 -136.909073 77.6354078 -136.587872 77.194936 -136.08983 75.0593698 -134.754501 74.4943383 -134.565029 74.1657896 -134.306986 73.922086 -134.012852 73.1747281 -132.830906 72.5645663 -132.165046 72.0446651 -131.935874 70.793653 -132.004445 70.6654829 -131.650764 70.6781194 -130.96325 70.6004953 -130.515734 70.1546078 -130.878438 69.8892416 -131.241142 69.6238754 -131.517231 69.3205997 -131.688658 68.9469207 -131.708508 69.1942348 -131.935874 69.3711456 -132.213767 69.5011209 -132.545795 69.5967972 -132.980679 67.79339 -133.863079 67.0315904 -134.435105 66.6236124 -134.631795 66.466559 -134.785178 66.3546358 -135.081116 66.4232339 -135.321114 66.5116893 -135.537654 66.466559 -135.786675 66.3419993 -136.167424 66.0224767 -137.587564 63.9627294 -139.370409 63.7605457 -139.844992 63.2749435 -140.406191 62.7026912 -140.902428 62.2351412 -141.207389 62.2351412 -141.501522 62.3669217 -141.568288 62.6701974 -141.828136 62.6304827 -142.149337 62.6304827 -142.436252 62.6701974 -142.836851 62.0401783 -143.062413 60.4389549 -143.152638 59.6266094 -143.457599 59.6266094 -143.816694 59.2204366 -143.816694 59.2204366 -144.114436 59.751169 -144.53308 59.9930675 -144.673831 60.294538 -144.764056 60.294538 -144.989618 60.2584337 -145.045557 60.1862252 -145.045557 60.0598603 -145.096083 60.294538 -145.420893 59.9786258 -145.675327 59.6464667 -145.770966 59.3143076 -145.686154 59.0002007 -145.420893 58.48391 -145.543599 57.8665273 -144.625109 56.8231146 -142.486778 56.5848266 -142.486778 56.5848266 -142.836851 57.2690021 -143.731882 57.4729911 -144.114436 57.880969 -145.361345 58.1174519 -145.742094 57.6896165 -146.102994 57.6896165 -146.400736 57.9134629 -146.866297 57.8899951 -147.369752 57.667954 -147.801027 57.2762229 -148.060875 56.8754658 -147.941778 56.2887718 -147.229001 55.9638335 -147.384188 55.67861 -147.019679 54.9059791 -146.353819 53.9582426 -145.171872 53.7019025 -144.71353 53.5917845 -144.114436 53.4275102 -144.419396 53.3859903 -144.552929 53.3534965 -144.764056 53.7614745 -145.25127 53.9907364 -146.115625 54.0105938 -147.048551 53.8029943 -147.732456 53.2939245 -147.851553 52.3570193 -146.67502 52.0591592 -146.754418 51.8389233 -146.754418 51.47066 -146.478329 48.8061666 -145.466006 48.5895411 -145.321646 48.2718237 -144.933678 47.9884054 -144.744206 47.5984795 -144.704507 46.8565372 -144.764056 46.9684604 -144.989618 47.0280324 -145.143 47.1128774 -145.274729 47.2897882 -145.420893 46.8493164 -145.458788 45.7589681 -146.102994 44.7606857 -146.162542 44.4646309 -146.400736 44.2660575 -146.400736 44.0981728 -146.000137 43.4067764 -144.764056 42.4969494 -144.350825 42.179232 -143.944813 42.3092073 -143.159856 43.4013608 -141.799264 43.8598847 -141.501522 42.2117259 -141.207389 42.0799454 -140.875361 42.2117259 -140.146343 42.527638 -139.043795 42.0727245 -138.792969 41.1466506 -138.78936 40.3722145 -139.031163 40.384851 -139.844992 39.2602037 -139.531009 38.8558361 -139.538227 38.4984041 -139.731309 37.7690983 -140.377319 37.4224975 -140.521679 35.9548599 -140.444086 35.3627502 -140.62634 34.952967 -141.207389 34.9583826 -140.902428 34.9403305 -140.644385 34.8735377 -140.417018 34.7345363 -140.196869 34.3482209 -140.50183 34.0954911 -139.956871 34.0052305 -139.043795 34.0846599 -138.217334 33.8355406 -138.473573 33.7380591 -138.617933 33.6387724 -138.892217 33.4401991 -138.892217 33.6116942 -137.92681 33.7254226 -137.526211 33.8698396 -137.230274 33.6387724 -136.909073 33.8698396 -136.587872 33.6387724 -136.259453 33.2307944 -136.806216 32.292084 -137.407114 31.909379 -137.919592 31.909379 -138.217334 32.0483803 -138.282296 32.3606821 -138.567407 31.7324682 -138.722594 31.272139 -138.480791 30.3785589 -137.587564 30.5428332 -138.157786 30.4940925 -138.635978 30.2882983 -138.984246 29.9687757 -139.188155 29.9687757 -139.538227 30.1854012 -139.538227 30.1854012 -139.844992 29.8135274 -139.974916 29.7738128 -140.225741 29.8893464 -140.568596 29.9687757 -141.028743 29.7738128 -141.176712 28.6527759 -140.84288 27.9866525 -140.427845 27.5985319 -140.28529 27.1634757 -140.196869 27.2862302 -139.761985 27.2663728 -139.404694 27.1382027 -139.123193 26.9269929 -138.892217 26.73203 -138.892217 26.6002495 -139.244094 26.4450012 -139.469656 26.2680904 -139.469656 26.0839587 -139.188155 25.5171221 -139.531009 24.7986475 -139.574317 24.0621209 -139.433566 23.4573748 -139.188155 22.9230319 -138.807405 22.3814682 -138.253424 22.2189991 -137.76621 22.8273557 -137.587564 22.8273557 -137.230274 22.4013255 -137.230274 21.6864615 -137.518993 21.2983408 -137.587564 20.9661817 -137.491926 20.0003931 -136.909073 19.2638665 -136.835088 19.4985441 -137.879893 18.9208761 -138.567407 18.1013097 -138.605302 17.2474443 -138.271469 16.3701111 -137.757187 15.4711153 -137.587564 15.4711153 -137.230274 15.6678835 -137.177943 16.097524 -136.909073 15.366413 -136.891028 14.3230003 -136.385768 13.606331 -136.259453 11.1386057 -136.259453 11.1386057 -135.96532 11.4184136 -135.786675 11.4834013 -135.633292 11.4256345 -135.47991 11.3317634 -135.281415 12.1964601 -134.925929 11.5989348 -134.907884 10.1529598 -135.281415 9.74498176 -134.9945 9.9688281 -134.348489 10.6999391 -133.336165 10.3045976 -133.222482 9.25757443 -133.812553 8.64380223 -133.982176 7.66176671 -133.881124 7.07146228 -133.67902 6.56600282 -133.336165 6.80068042 -132.980679 6.45949529 -133.117821 6.13275186 -133.336165 5.56591518 -132.5079 4.78425823 -131.053475 4.46473564 -129.678447 5.26805514 -129.075744 5.26805514 -128.792438 4.67414028 -128.601161 4.30226653 -127.944323 4.14160263 -127.058314 4.18853816 -126.15787 4.72829665 -124.885698 4.77884259 -124.2848 4.18853816 -124.214424 4.38891673 -123.236386 4.66511422 -122.750976 5.08572869 -122.588571 6.67792598 -122.570526 6.96314954 -122.729322 7.01550069 -123.072177 7.01189027 -123.416836 7.12561865 -123.568414 7.73578042 -123.472776 8.83695995 -123.016237 9.39116014 -122.891727 10.0049323 -122.976538 10.9490584 -123.454731 12.4961254 -123.837284 14.4890798 -125.096824 15.4711153 -125.515468 17.6048763 -125.863736 18.231285 -126.103735 19.2241518 -126.677565 19.7855728 -126.834557 16.7672578 -125.046298 16.4134362 -124.759383 14.610029 -122.570526 14.610029 -122.272784 15.0468904 -122.319701 15.4711153 -122.444211 15.833963 -122.635488 16.097524 -122.891727 16.335812 -122.570526 16.2202785 -122.474888 16.1859794 -122.455038 16.097524 -122.272784 16.8069725 -122.404512 17.8070601 -123.101049 18.2764153 -122.891727 18.3937541 -123.101049 18.5887171 -123.342852 18.6880037 -123.568414 18.9208761 -123.568414 18.9208761 -123.214732 18.6880037 -123.214732 18.6880037 -122.891727 19.1844371 -123.046914 19.8993012 -123.568414 20.4336441 -123.568414 19.8234823 -122.900749 19.5129858 -122.675187 19.3667636 -122.474888 19.3559323 -122.272784 19.0851505 -122.169927 18.95337 -122.05444 18.6880037 -121.633991 20.0383026 -121.720607 20.2386811 -121.778351 20.4083711 -121.300159 20.8019074 -121.137754 21.2423792 -121.253242 21.5312132 -121.633991 21.6666041 -121.072792 22.0366726 -120.892342 23.0241238 -120.957304 23.0241238 -120.605427 20.4390597 -120.055055 19.7855728 -120.311294 20.2513176 -120.322121 20.449891 -120.405128 20.6502696 -120.605427 18.5291451 -120.452045 17.0380397 -120.026183 16.6589451 -119.986484 16.2455514 -120.062273 16.003653 -120.235505 15.7924431 -120.446631 15.4711153 -120.605427 12.6549841 -120.405128 11.7830665 -120.818358 12.1964601 -122.570526 11.6693381 -122.815938 11.268581 -122.435189 10.6999391 -120.957304 10.7613163 -120.787681 10.8407457 -120.452045 10.7703424 -120.130844 10.3713904 -119.986484 10.0247897 -120.055055 9.76122868 -120.157911 9.49766767 -120.175956 9.1510669 -119.986484 9.23952231 -119.519119 9.1510669 -119.013859 11.0519555 -118.93807 11.4418814 -118.844236 11.6567016 -118.357022 11.5375576 -118.165745 11.2902435 -117.956423 11.1386057 -117.406051 11.2126194 -117.050565 11.4057771 -116.649966 11.7668196 -116.106812 11.6061557 -115.792829 11.3317634 -114.793137 12.1459142 -115.07103 12.7073352 -115.967865 13.147807 -117.041542 13.606331 -117.880634 14.4854694 -118.187399 16.1733429 -117.108309 16.9622207 -117.406051 17.0380397 -117.101091 17.1806514 -116.814175 17.3792248 -116.585004 17.6265389 -116.433426 18.9678117 -116.128466 19.3920366 -115.697191 19.5527005 -114.639754 19.6465715 -114.318554 20.0906537 -113.733896 20.2386811 -113.210591 19.9299898 -111.878871 19.7855728 -111.536017 19.3198281 -111.333913 17.5092001 -111.889698 7.33682849 -109.610617 7.15630726 -109.675579 6.90899317 -109.960689 6.80068042 -109.953471 6.68875726 -109.791066 6.64904259 -109.610617 6.62557483 -109.448212 6.43602753 -109.09453 6.30605224 -108.798592 6.14719355 -108.513481 5.93959413 -108.352881 8.31164316 -107.676194 9.38213408 -107.741156 9.925503 -107.638299 10.8696291 -106.712592 11.2830227 -106.941763 11.6711433 -107.410933 12.0971735 -107.676194 12.4112804 -107.504767 15.2111648 -105.292451 16.7167119 -103.338179 17.1950931 -102.481042 17.4965636 -101.198044 17.9731397 -99.9962475 18.0814524 -99.1553511 17.9659188 -98.8431729 17.6951369 -98.7746019 17.3936665 -98.7746019 17.2005088 -98.662723 17.1481576 -98.3830257 17.2167557 -97.7261882 17.2005088 -97.3761154 21.8326837 -97.1559666 22.6125354 -97.3761154 23.0945271 -97.6612262 24.1216929 -98.662723 24.1216929 -99.0037732 23.2588014 -99.0037732 23.2588014 -99.299711 23.3689194 -99.4440709 23.4573748 -99.6245208 22.9952404 -99.9583531 23.085501 -100.528575 23.5223624 -100.653085 24.1216929 -99.6245208 24.4430207 -99.9366991 24.7282443 -100.146021 25.040546 -100.261509 25.4358875 -100.290381 25.4358875 -100.586319 25.0549877 -100.949023 24.6253472 -101.587815 24.4376051 -102.300592 24.7697641 -102.852769 24.8690508 -102.089466 25.1759369 -101.358644 25.5839149 -100.806467 25.9666199 -100.586319 26.477495 -100.528575 26.8963043 -100.36617 27.7916896 -99.6245208 27.9523535 -100.035946 28.1924468 -100.136998 28.5065537 -100.146021 28.8874535 -100.290381 28.780946 -99.8789551 28.5932039 -99.6624153 28.3422794 -99.5956488 28.0227568 -99.6245208 28.670828 -99.4440709 29.3784713 -100.230832 29.6077332 -100.936391 29.3188993 -101.889167 30.1547126 -101.730371 30.999552 -101.169172 31.5934668 -100.479853 31.6963639 -99.9745935 32.0862898 -99.7201592 32.2830579 -99.6317388 32.5610606 -99.6245208 32.4256697 -99.0795622 32.5412033 -98.7926469 32.7632444 -98.612197 32.9870908 -98.3667852 33.5918369 -97.240778 33.6387724 -97.0910046 34.2092195 -97.0314562 34.918668 -97.1758161 35.590207 -97.1956656 36.0487309 -96.7337139 37.698695 -97.6612262 37.9748925 -97.5367158 38.2384535 -96.8997278 38.8450048 -96.6777744 40.0400554 -96.7337139 40.1880828 -96.6489024 40.5491253 -96.2483037 40.7946342 -96.0985303 41.0618056 -96.0606359 41.8759564 -96.0985303 42.9933828 -95.8206375 43.5114787 -95.8134196 43.8598847 -96.0985303 43.9790287 -95.7484576 44.1162249 -95.5463537 44.4646309 -95.134928 44.9177392 -94.1821527 45.8582548 -92.9623116 45.9954509 -92.7060728 46.4449488 -92.5725399 49.0372337 -93.2221594 49.0372337 -93.5162927 48.8855959 -93.7544865 48.6888278 -93.9457634 48.4451241 -94.0901233 49.107637 -94.2507237 50.06801 -94.8227498 50.9399276 -95.6419922 51.6259083 -96.4431896 51.6259083 -96.0985303 51.2197355 -95.7737206 50.9327067 -95.2197395 50.5283391 -94.1821527 50.331571 -94.1262133 49.7918125 -94.2038067 49.6798893 -94.0197479 49.6798893 -93.5812547 49.6473955 -93.3448653 49.5174202 -93.2492269 49.2303915 -93.2221594 49.2303915 -92.8666732 50.560833 -92.7349448 51.122254 -92.5364499 51.6259083 -92.2296852 51.6259083 -91.9445744 50.3640648 -92.4011125 49.8008386 -92.4552475 49.2303915 -92.2296852 50.0788413 -92.2008132 51.4670496 -91.8290864 52.2739795 -91.5908926 53.2343525 -90.5063889 53.4690301 -90.315112 53.7614745 -90.5118024 53.8589559 -90.9430776 54.0105938 -91.3815708 54.4510656 -91.5908926 54.1225169 -92.0853253 53.9997625 -92.2296852 54.4510656 -92.3541956 54.6965745 -92.6573513 54.9168104 -92.8305832 55.295905 -92.5526904 55.3410353 -92.7259223 55.3374248 -92.8017112 55.3699187 -92.8396057 55.5305826 -92.8666732 55.389776 -93.5162927 55.1930079 -94.0089209 54.8915374 -94.3535801 54.4510656 -94.5250075 54.9493042 -94.6296684 55.3735291 -94.4095196 55.712909 -94.3229036 55.9638335 -94.8227498 56.1587965 -94.8227498 56.1407443 -94.494331 56.1587965 -93.5162927 56.3050187 -93.6119312 56.6786976 -93.7544865 56.8231146 -93.8591475 56.8231146 -93.3935868 56.8556084 -93.0561456 56.9205961 -92.8017112 57.0397401 -92.5526904 54.6676911 -91.4483372 54.2867913 -90.1328577 54.2127776 -89.5337641 54.3391424 -89.2450443 54.6406129 -89.0645944 54.9962397 -88.9130166 55.295905 -88.7235442 55.7454028 -88.1966306 56.0938088 -87.590319 56.3176551 -86.7800991 56.3952793 -85.6919864 56.3212656 -85.0658253 56.0306264 -84.2736504 55.9638335 -83.7683908 56.0143795 -83.3389201 56.3952793 -81.9963731 56.5848266 -81.9963731 56.792426 -82.2056949 57.4549389 -82.025245 57.8827743 -81.9963731 57.1823519 -82.8156155 56.6588403 -83.9001192 56.4819295 -85.2354482 56.8231146 -86.8089711 56.6714768 -86.8937825 56.5324754 -87.0561874 56.3952793 -87.1211494 56.6588403 -87.615582 57.0126619 -87.648063 57.3809252 -87.4062601 57.6896165 -87.1211494 57.4820171 -86.9298725 57.2762229 -86.8089711 57.7184999 -86.5401008 58.2221542 -86.5779952 59.2204366 -87.1211494 59.4244256 -86.9046095 59.6085573 -86.8360386 60.0598603 -86.8089711 59.8703131 -87.4261096 59.9768206 -87.9403918 60.1862252 -88.0179852 60.294538 -87.2961857 60.447981 -86.6844607 60.7386202 -86.5599503 60.915531 -86.855888 60.7313993 -87.4766356 61.1556242 -87.0850594 61.493199 -86.6086717 61.7766173 -86.3019069 62.0401783 -86.4859658 62.3669217 -86.0167962 62.4553771 -85.8543913 62.5384169 -86.0384501 62.5907681 -86.1701785 62.6701974 -86.4859658 62.3398435 -86.8161891 61.9860219 -87.2835542 61.706214 -87.7978364 61.5924856 -88.2724195 61.5924856 -89.3894042 61.5491605 -89.714214 61.3975227 -90.2952626 61.3560028 -90.6687938 61.5924856 -90.6687938 61.6737202 -90.0859407 61.8831248 -89.6438385 62.2170891 -89.3984267 62.6701974 -89.3894042 62.3994156 -89.1692554 62.3019341 -88.8101601 62.3344279 -88.331968 62.4553771 -87.7617464 62.6701974 -87.7617464 62.8037831 -87.9620457 62.904875 -88.0378347 63.3200738 -88.1118191 63.3200738 -87.7617464 63.0980327 -87.7617464 63.0980327 -87.4766356 64.1486663 -87.7310699 64.7696594 -88.0179852 65.0458569 -88.5791843 65.3707951 -88.9021896 66.9990966 -89.0754214 67.6525835 -89.3894042 67.2229429 -89.6763195 68.1977576 -89.5030876 68.575047 -89.2540668 68.9469207 -88.7235442 68.3187068 -88.9418885 67.6525835 -89.0393315 69.2321443 -88.0252032 69.3964186 -87.7617464 69.7646819 -87.7888139 69.9090989 -87.8844523 70.0481003 -88.1118191 69.5967972 -88.4258019 69.9867231 -88.5412898 70.1798808 -88.7686567 70.13114 -89.0645944 69.8296696 -89.3894042 69.8296696 -89.6763195 70.539118 -88.7524162 70.394701 -87.8844523 69.1599358 -86.1701785 69.3964186 -85.8543913 68.7266848 -85.4068756 67.8655985 -85.3238687 67.0676947 -85.585521 66.5730665 -86.1701785 66.3943505 -85.4826645 66.3618567 -85.1777043 66.0712175 -85.4628151 65.8563972 -85.542213 65.6722655 -85.4375521 65.4989652 -85.1777043 65.276924 -85.1777043 64.8111792 -86.1214571 63.9518982 -86.1214571 63.4247762 -85.7425124 63.9627294 -85.531386 63.9880024 -85.3022147 63.9374565 -85.2354482 64.0367432 -85.1867268 64.3941752 -85.1289828 64.6992561 -84.9774049 64.8274262 -84.7301886 64.9483754 -84.6814671 65.4357827 -83.7683908 65.4989652 -83.5879409 65.9231901 -83.1855377 66.3347785 -82.9762159 66.8077441 -82.9292989 67.4179059 -82.9870428 69.0642595 -83.5554599 69.5967972 -83.5879409 70.6456256 -83.2162142 71.0788765 -83.4634305 71.1240068 -84.5786107 71.465192 -84.3295899 71.8352605 -84.2447784 72.6349696 -84.2538009 72.5663715 -84.5695882 72.4382014 -84.7500381 72.2468489 -84.8456765 71.9850931 -84.890789 72.5266568 -85.0261264 72.9924016 -84.9774049 73.4437047 -85.0459759 73.931112 -85.531386 73.6892136 -84.901616 73.2180532 -84.3801158 72.6620478 -84.0246296 72.1818613 -83.9398182 72.5104099 -83.6456849 72.7035676 -83.6727524 72.8895045 -83.8333527 73.1747281 -83.9398182 74.3625578 -83.9398182 75.393334 -84.2844774 75.8049225 -84.3404169 76.3049663 -84.2538009 78.7185352 -83.3010256 79.2980083 -83.2938076 80.1446529 -83.443581 80.6573332 -83.3010256 80.000236 -83.3461381 78.8467053 -83.0267418 76.8736082 -82.9220809 76.5215918 -82.6044891 76.9710896 -81.9963731 76.7093338 -81.1085597 77.110091 -80.8613434 77.7726039 -80.7891634 78.2852842 -80.4426997 77.9964502 -79.7750352 78.5145462 -79.5747358 79.2943979 -79.5566908 79.7763896 -79.4628569 79.6771029 -79.1452651 78.5885599 -78.5371491 78.2852842 -78.1834673 78.0488014 -78.4703826 78.1878028 -78.5533896 78.2221018 -78.5624121 78.2852842 -78.8240644 77.756357 -78.9287253 77.4260031 -79.0604537 77.0902336 -79.0784987 74.5809885 -77.5825693 75.8879622 -76.7254324 76.2490047 -76.0126554 76.3049663 -74.6592814 76.5378387 -74.6592814 76.7093338 -75.1158196 76.6948921 -75.3070964 76.5378387 -75.6373197 76.6371253 -75.7437851 76.7382172 -75.8105516 76.9710896 -75.935062 77.4512761 -75.2782244 78.0831004 -74.6592814 78.3773501 -74.0295113 77.8321759 -73.4033503 77.1173118 -73.2680129 75.7561817 -73.9248504 75.0268759 -74.0295113 75.0268759 -73.7137241 77.9910346 -72.1600507 78.9134981 -72.1221562 78.9496024 -72.2556891 78.9965379 -72.5426044 79.1138767 -72.8565872 79.3666064 -73.080345 79.5994788 -73.1326755 79.8955336 -73.1435025 80.4244609 -73.080345 80.9299203 -72.7807982 81.6989408 -71.8857669 82.168296 -71.4671232 82.7387431 -71.2289294 83.3633466 -71.2199069 83.9608718 -71.4562962 84.7010089 -72.2015542 85.6433298 -72.475838 85.9718784 -72.7717758 86.1361527 -73.065909 86.266128 -73.3726738 86.4845587 -73.7137241 87.4774255 -74.3146221 91.842429 -74.6213869 93.04109 -74.2677052 93.4815618 -73.8201895 93.7649801 -73.7137241 94.5069224 -73.6361306 95.1423571 -73.4268088 96.2345106 -72.7627533 97.3483266 -71.8388499 98.303284 -70.7038203 98.8520685 -70.2545001 100.153627 -69.9910433 100.787256 -69.5615726 99.0831357 -69.6157075 98.3556351 -69.9531488 97.6588231 -70.7038203 97.3374953 -70.9131421 96.0214955 -71.1802079 94.7217427 -72.1221562 94.7217427 -72.475838 95.3734243 -72.475838 95.090006 -72.7717758 94.7813147 -72.9720751 94.44374 -73.080345 94.0790871 -73.080345 94.2902969 -72.7627533 93.8083052 -72.7410993 92.1908349 -73.1795925 91.9525469 -73.4033503 91.7052328 -73.7137241 91.4669448 -73.6668071 91.2539297 -73.5639507 91.0373043 -73.4033503 88.1273019 -73.087563 87.3691128 -72.7627533 87.0893048 -72.3693725 86.8853158 -71.8081735 86.7643666 -71.2199069 86.7210415 -70.7038203 86.8131074 -70.0000658 87.1470716 -69.2746573 87.1344352 -68.6430827 87.0405641 -67.9609822 86.9448879 -67.576624 86.7029894 -67.4160236 85.6704079 -67.2752727 85.3021446 -67.0064024 84.9609595 -66.6852017 84.5457606 -66.4000909 85.6631871 -65.7775388 89.309716 -65.1405508 91.2160203 -64.0740921 91.7052328 -63.5868774 92.0428075 -63.0545503 92.3930187 -62.2316989 92.4525907 -61.450351 91.902001 -61.0317073 91.5247116 -60.2124649 90.9885635 -58.5451081 90.6022481 -57.8503761 89.394561 -57.0960956 88.9342319 -56.6106855 89.1129479 -55.9646749 88.3042128 -55.3727994 88.0911977 -54.8964117 88.0153788 -53.9075464 88.051483 -53.113567 88.1760427 -52.2365806 88.4089151 -51.5129767 88.7699575 -51.2188434 89.5931344 -50.9319281 90.5697543 -50.2281736 92.3316415 -48.3875849 93.2667415 -46.4748163 93.5375234 -46.195119 94.0592297 -46.1391796 94.5917674 -45.9587297 95.0087714 -45.6248974 95.328294 -44.4501688 95.7073886 -44.0026531 96.1947959 -43.5840094 96.6677616 -43.0300283 96.8645297 -42.5013102 97.0089467 -41.8823671 97.2598712 -41.3626715 97.7653307 -41.1551542 97.6263293 -40.3557612 98.3339726 -36.9993937 98.6282222 -36.58075 98.9260822 -36.4219541 99.0596679 -36.620449 99.0163428 -37.0210477 98.8358216 -37.7735236 98.8231851 -38.3329182 99.1246556 -37.8384856 99.4802824 -36.8387933 99.7095444 -36.4688711 100.110302 -36.2216547 101.000271 -35.9744384 102.061736 -35.0379036 103.745999 -34.7401613 104.26229 -34.2475332 103.989703 -33.6827251 104.847179 -33.4084413 106.955667 -33.3128028 107.823974 -33.1413755 108.555085 -32.6379203 109.055129 -31.7970239 109.241066 -30.6529718 109.584056 -29.673129 110.38557 -29.637039 112.066223 -30.1657571 112.486837 -29.9961343 113.203507 -29.3699732 114.176516 -28.7889246 114.490623 -28.7275717 115.005109 -28.5868208 115.57375 -27.7206614 116.178497 -26.9844259 117.030557 -26.7516456 116.990842 -28.1898311 118.16423 -28.8935855 119.575906 -28.7943381 120.267303 -27.8162998 120.350342 -27.1775073 120.496565 -26.7859311 120.521838 -26.4232268 120.267303 -25.8421783 118.092022 -24.4888042 117.741811 -23.8879062 117.913306 -23.0109198 117.619056 -22.816034 117.306754 -22.4298712 117.10096 -21.9877691 117.13887 -21.6016063 117.442145 -21.2876236 117.711122 -21.2316841 117.996345 -21.2497291 118.324894 -21.1540907 118.80147 -21.1829626 118.97116 -21.1540907 119.01268 -21.0205578 118.97116 -20.8022134 118.958524 -20.5928916 119.090304 -20.5062756 119.334008 -20.4395092 120.07234 -19.8765056 119.693245 -19.5047789 119.693245 -19.3153065 119.884598 -19.1619241 120.07234 -18.9544068 120.177042 -18.8786178 120.58141 -18.7432804 120.698748 -18.669296 120.742073 -18.4942596 120.733047 -18.0665934 120.958699 -17.4566728 120.994803 -17.0019392 121.104921 -16.6284079 121.706057 -16.3992366 121.915461 -16.2386362 122.092372 -16.0202919 122.231374 -15.818188 122.231374 -15.5439042 121.882968 -14.7715788 121.458743 -14.4016566 120.935231 -14.435942 120.267303 -14.8942847 120.7168 -13.3965508 121.061596 -12.7974572 121.581497 -12.44558 121.422639 -12.3120471 121.104921 -11.9818238 120.935231 -11.8248324 121.128389 -11.5902476 121.359456 -11.1878444 121.539977 -10.7222837 121.581497 -10.2531141 121.447911 -9.73161394 121.245728 -9.62695301 120.994803 -9.68289247 120.698748 -9.63597551 120.205925 -9.34003772 119.855714 -9.01522796 119.704076 -8.8167331 119.543412 -8.54786279 119.319566 -8.28260149 118.97116 -8.09312912 119.241942 -7.62395946 119.451347 -6.96531744 119.588543 -6.28863043 119.637283 -5.76352131 119.806973 -5.35750911 120.621124 -4.38488431 123.466139 -2.08775748 124.171977 -1.28114656 121.958787 -2.31692881 121.581497 -2.66880605 121.22226 -2.90880438 119.209448 -5.28713366 118.592066 -5.31600564 116.490798 -4.6717996 116.496214 -4.09075102 115.952845 -0.945509803 116.521487 -0.716338469 117.631693 -0.96355479 118.216581 -0.50882112 118.602897 4.75116481e-05 119.050589 0.454781182 119.570491 0.781395445 120.168016 0.895078863 121.115752 1.28485058 122.812652 2.98107935 123.859675 3.36363307 124.054638 3.55490994 124.182808 4.40121982 124.285705 4.59069218 128.766242 7.84781232 130.23027 9.52599611 130.937913 10.6538078 131.573348 11.9115434 132.622176 14.7409973 133.037375 16.4751206 134.243257 25.0320534 134.640403 26.4503893 135.216266 27.6124865 136.340913 28.4804504 137.71468 28.9297705 138.976523 29.5595406 139.765401 30.9598316 139.055953 30.3697605 138.326647 29.9962293 137.510691 29.8121704 136.530461 29.7670579 137.274208 30.2254006 137.980046 30.9472001 138.335673 31.9126069 138.037813 33.114403 138.234581 33.6647751 138.350115 34.9225107 138.471064 35.5432583 138.048644 35.2076215 137.783278 34.49304 137.649692 33.5691367 137.609978 32.6452334 137.702043 31.9306519 137.653303 31.5210307 137.393352 30.9598316 137.117155 30.6440443 136.099015 30.0449507 134.891328 28.8611996 133.813616 27.4609086 132.74493 24.8660395 132.61676 24.3625844 132.026456 20.2194554 131.605841 18.5502941 131.526412 17.6552627 131.158149 16.3000842 130.271789 14.9882137 126.446544 10.7314012 125.955527 10.5744098 124.625085 9.82193389 122.503961 8.17442659 122.231374 7.82254934 121.895604 7.28841773 121.798123 7.0502239 121.799928 6.80120308 121.868526 6.56481375 121.955176 6.42045386 121.975033 5.90617173 121.993086 5.57414397 121.915461 5.37384462 121.581497 5.20422174 121.074233 5.4027166 120.621124 6.09564409 119.539802 8.28811001 119.343034 8.94855653 118.774392 18.4113477 117.460197 25.4777645 115.535841 47.4024237 115.745246 46.907991 116.025054 45.8451413 116.384291 43.8890647 117.804993 41.7146438 118.012592 41.2941956 118.088411 41.2202111 118.131736 41.0469793 118.189503 40.8575069 118.324894 40.713147 118.54152 40.695102 118.693157 40.7979584 118.821328 40.9351003 118.97116 41.0199118 119.319566 41.1732942 121.700641 43.4090681 122.012943 44.0496651 121.581497 44.0496651 122.363154 44.8689075 122.354128 45.5492035 121.716888 46.0039372 120.601267 46.1645376 118.662469 45.6881499 117.868175 45.7188264 117.243572 46.5001743 116.67854 48.5302353 116.599111 49.0625625 116.474551 49.3476733 115.638738 50.5602964 115.606244 50.9302186 115.878831 52.1879542 115.952845 52.8357692 115.732609 55.5677802 114.869718 61.7536018 112.828023 74.1703573 111.719622 79.8400922 110.970459 82.3375183 109.676122 89.4797242 108.912517 91.9609099 108.695891 93.3215019 108.190432 94.9437462 107.948534 95.4472013 106.280517 96.7446359 106.006125 97.0874907 105.865318 97.5729008 105.182948 98.9154478 104.904946 99.2961971 104.314641 99.7256677 103.610608 100.106417 102.872276 100.373483 100.076002 100.831825 99.4911137 101.068215 99.2564361 101.396634 98.7581975 101.033929 98.575871 102.241139 98.5524033 103.146997 98.5596241 103.681129 99.4658407 104.121427 99.8611822 104.650145 99.9640793 105.501868 100.130159 105.842918 100.467734 105.788783 100.839607 105.604724 101.520172 105.519913 102.159218 105.240216 102.448052 105.279915 103.049187 105.565026 103.361489 105.788783 103.356073 105.99991 103.269423 106.25254 103.323579 106.633289 103.552841 107.376742 103.70809 107.568019 104.090795 107.746664 104.43198 107.79719 104.834542 107.746664 105.175727 107.549974 105.359859 107.169225 105.608978 106.436598 106.081944 106.151488 106.704742 106.167728 107.692193 106.463666 109.009998 107.147571 109.36021 107.091631 109.708616 106.968925 110.089515 106.968925 110.995732 107.912678 111.114876 109.484397 110.773691 111.207693 110.293504 112.571894 109.890942 113.115048 108.591189 114.513535 108.329433 114.876239 108.72658 115.814578 109.302443 116.460589 109.99745 116.872014 110.773691 117.068705 111.640193 117.144494 112.178146 116.964044 112.448928 116.3848 112.519331 115.258792 112.744983 114.390829 113.284741 113.782713 113.995995 113.503015 114.707249 113.692488 114.044736 114.268123 113.78659 114.831126 113.932812 115.412175 114.46535 116.029313 115.062875 116.3848 116.891556 116.713218 117.978293 117.315921 119.01268 118.155013 120.196899 118.053961 120.469486 118.155013 120.994803 118.49065 121.231286 118.68734 122.321634 118.824482 122.848756 118.972451 123.235072 119.419966 124.332641 120.25184 125.542133 120.643417 128.060404 120.854543 130.497441 120.410636 131.34228 120.710183 131.936195 122.23318 131.919948 122.53814 131.815246 122.736635 131.782752 122.965806 131.956053 123.357383 132.279186 123.674974 132.589682 123.70926 132.900179 123.664147 133.217896 123.720087 134.301023 124.385947 134.862444 124.86053 136.093599 126.504428 136.13873 126.693901 136.075547 126.874351 136.070132 127.033146 136.275926 127.132394 136.792216 127.132394 136.929413 127.181115 137.115349 127.43555 137.072024 127.713442 137.066609 127.966072 137.369884 128.168176 137.617198 128.132086 138.149736 127.769382 138.424128 127.673743 138.481895 126.656006 139.285215 126.674051 140.992946 127.477053 141.956929 127.395851 142.722339 126.941117 144.238717 125.739321 144.514915 126.026236 144.762229 125.930598 144.98066 125.59857 145.152155 125.179926 145.637757 125.63466 147.547672 126.791344 147.924961 127.587128 148.771606 127.691788 149.685043 127.43555 150.253685 127.195551 150.183282 127.942614 150.369219 128.682458 150.748313 129.312228 151.268214 129.739894 151.464982 129.978088 151.504697 130.284853 151.591347 130.560941 151.925312 130.712519 152.326069 130.828007 152.546305 131.019284 152.694332 131.237628 152.876658 131.427101 154.127671 131.923338 155.218019 131.818677 157.656861 130.923646 159.595659 130.627708 160.189574 130.225305 160.702254 130.153125 162.384712 130.589813 162.890171 130.838834 163.567126 132.04063 164.058144 132.628897 164.525694 132.553108 165.417469 131.304395 165.973474 130.743196 166.549337 130.532069 167.42306 131.273718 167.493463 131.418078 167.482632 131.600333 167.500684 131.769956 167.661348 131.923338 168.291367 132.044239 168.908749 132.008149 170.111021 131.695971 170.636338 131.914315 174.577116 131.800632 175.694543 131.950405 176.109741 131.800632 176.385939 131.342289 176.418433 130.645753 176.200002 130.001547 175.826323 129.519746 175.376825 129.362754 175.569983 128.933284 175.687322 128.749225 175.923805 128.568775 175.573593 128.083365 176.01587 126.885178 175.947272 125.968492 176.09891 125.347745 176.824605 125.062634 177.691107 124.995867 178.250723 125.053611 179.341072 125.481278 179.891661 125.605788 180.503628 125.549849 181.048802 125.643682 182.413543 126.44488 183.348643 126.814802 183.623035 127.025928 184.1303 127.520361 184.464264 127.664721 184.769345 127.511339 185.063595 127.264122 185.388533 127.159461 185.65751 127.264122 186.181021 127.691788 186.419309 127.836148 189.114491 128.016598 189.773394 128.227725 190.334815 128.734789 190.643506 129.3411 190.883599 130.010569 191.204927 130.598836 191.746491 130.99763 192.096702 131.037329 193.154556 130.690865 197.044789 130.712519 197.788536 130.914623 197.65134 131.522739 197.810199 131.695971 198.108059 131.715821 198.373425 131.858376 198.931236 132.858068 199.537787 133.69716 200.07213 135.164218 200.528849 135.763311 201.227466 135.4782 201.716679 133.792799 202.714961 133.839716 203.641035 133.486034 204.124832 133.448139 205.841589 134.628281 206.182774 134.790686 209.778757 135.146173 209.504365 136.014136 210.01524 136.333533 210.748156 136.562704 211.139887 137.127512 210.349204 137.201497 209.771536 137.768109 209.41952 138.652314 209.305791 139.720577 209.399662 139.776516 209.462845 139.868546 209.484507 139.975011 209.470066 140.112153 210.051344 140.348542 212.011805 140.611999 212.674318 140.889892 214.448841 142.109733 215.192589 142.279356 215.782893 142.311837 216.273911 142.528377 216.705357 143.242958 217.120556 144.845353 217.418416 145.500386 218.043019 146.036322 218.43114 146.294365 218.85717 146.361132 219.678541 146.263689 220.203858 146.131961 220.564901 145.891962 221.097438 145.332568 221.852017 144.751519 222.003655 144.498889 222.240138 143.872728 222.391776 143.654384 222.89904 143.417995 224.390146 143.598444 226.34158 142.986719 227.330837 142.882058 228.215391 143.378296 228.59268 143.692278 230.433997 144.558438 231.416032 144.778587 231.921492 144.796632 232.154364 145.484146 232.648992 146.150006 233.257349 146.63722 233.842238 146.790603 234.486698 147.149698 234.83691 147.26699 235.165458 147.256163 235.378473 147.055864 235.640229 146.361132 235.891154 146.139179 236.497705 146.121134 237.954511 146.619175 238.651323 146.749099 239.494357 146.705791 239.483526 146.51271 239.0936 146.076021 238.804766 145.263997 239.053886 144.890466 240.386132 143.843856 240.947553 143.549723 241.595625 143.502806 242.83039 143.692278 243.489292 143.585813 244.000167 143.273635 244.947904 142.338904 245.460584 142.042967 245.967849 141.983418 246.511218 142.005072 247.036535 141.920261 248.079947 141.110041 249.094477 141.501617 249.634235 141.147935 249.973615 141.214702 250.896079 141.243574 251.107288 141.299513 251.313083 141.775901 251.560397 142.176499 251.867283 142.501309 252.242767 142.737699 252.892643 142.950629 253.704989 143.033636 254.533581 142.995742 256.678174 142.62582 256.725109 142.364167 256.714278 141.31034 255.687112 139.8902 253.488364 137.661644 253.165231 136.80992 252.796967 133.570845 252.807798 133.060172 252.722953 132.820174 252.547848 132.70649 252.120013 132.731753 251.979206 132.668596 251.764386 132.340177 251.625384 132.020781 251.665099 131.649054 251.979206 131.208756 252.385379 131.809654 252.571316 131.972059 252.677823 131.66349 253.044281 129.492678 253.083996 128.722157 253.038866 127.962463 252.896254 127.215401 252.706707 126.863524 252.35469 126.704728 251.46111 126.416008 250.962871 126.360068 250.684869 126.206686 250.477269 125.936011 250.27328 125.342331 250.036798 125.053611 251.284199 123.738132 251.656073 123.536028 251.778827 123.306857 251.742723 122.327014 251.872698 122.097843 252.152506 122.164609 252.600199 122.39378 252.81863 122.366713 253.318674 121.881303 253.177867 121.468072 252.304144 120.749882 251.948517 120.116503 251.867283 119.44162 252.130844 118.945383 252.81863 118.842527 252.39982 119.611243 252.289703 119.993797 252.430509 120.336652 252.791552 120.470185 252.977488 120.125525 253.125516 119.659965 253.37283 119.430793 253.495584 119.183577 253.598481 118.63501 253.686937 117.518025 253.818717 117.068705 254.427074 116.399236 254.571491 115.877736 254.331398 115.475332 253.80247 115.152327 253.277154 114.560451 253.038866 113.373091 253.188698 113.059109 253.569598 112.932794 254.452347 112.932794 254.584127 113.075349 254.291683 113.391136 253.686937 113.836848 253.686937 114.116545 254.120188 114.358348 254.313346 114.641654 254.464983 114.80045 254.764649 114.726465 255.651008 113.373091 255.822503 112.857005 256.221455 112.409489 256.961592 111.752652 257.198075 111.34303 257.501351 110.520179 257.71256 110.132212 258.234267 109.475374 262.592049 106.151488 263.727528 105.581266 264.489328 105.435102 265.751171 106.063067 266.413684 105.767129 269.0168 102.576776 270.049382 101.710616 273.612871 99.7743892 279.913062 94.581042 279.913062 94.2562322 278.842571 94.6189364 277.882198 95.4183294 276.223208 97.2517 274.603932 98.6682315 273.571351 99.2222126 272.50086 99.2961971 272.50086 99.0201088 275.165353 97.9067331 275.580552 97.3816239 275.665397 96.7157639 275.89827 96.3043382 277.950796 94.581042 278.810077 94.0667598 280.768733 93.4640573 282.19124 92.4372975 283.12995 92.1142923 284.897253 91.8562489 284.595783 92.511282 284.213078 92.9299257 283.687761 93.187969 282.953039 93.3702233 281.465544 93.5019518 280.763317 93.7239051 280.348118 94.2562322 281.416804 93.7581906 283.330329 93.5542822 285.160814 93.7437546 285.971355 94.4186371 286.023706 94.5720195 286.648309 96.8673418 286.82161 97.2517 287.058092 97.5151568 287.727826 97.8580116 288.496847 98.0240255 298.277487 98.3434217 299.658475 98.630337 300.497898 99.2961971 300.544834 100.061304 300.308351 100.952727 300.019517 101.699789 299.947309 102.011968 300.801174 102.439634 302.08829 102.804143 306.733102 103.015269 307.845113 102.576776 307.085118 101.744902 306.124745 101.057388 305.265464 100.165965 304.824992 98.7079305 304.824992 95.5915612 304.689601 95.1332186 303.752696 93.6390937 303.752696 93.3702233 304.296065 93.6950331 304.738342 94.3338257 305.066891 95.0844971 305.265464 95.7431391 305.337673 96.4829836 305.265464 99.0201088 305.751066 100.165965 306.816142 101.17468 308.132141 101.918134 309.361491 102.280838 309.125008 101.575279 308.818122 101.308213 308.668289 101.079042 308.935461 100.479948 309.231516 100.211078 310.002341 100.039651 310.348942 99.7653667 311.136015 99.400858 312.870824 100.402355 313.47918 100.180401 314.273474 100.402355 315.024442 99.8700276 315.369238 98.8974028 315.000974 97.8128991 314.537035 97.4303454 314.15433 97.2192191 313.865496 96.8601238 313.69039 96.0390769 313.751767 95.7142672 313.903405 95.1151736 314.111005 94.541343 314.322214 94.2562322 314.513567 94.3789381 314.96848 94.9996857 315.102066 95.1440456 315.845814 95.1151736 316.094933 95.1440456 316.737589 95.3696079 316.903668 95.5915612 316.923525 95.9614835 317.152787 96.6273435 317.831547 97.4213229 318.638477 97.5620738 319.523031 97.240873 320.436469 96.6273435 320.557418 97.6577122 320.144024 98.630337 319.499563 99.42973 318.896623 99.9151401 318.028315 100.180401 315.208574 100.180401 314.224733 100.737992 313.798703 101.614978 313.959367 102.594821 314.79518 103.466394 315.576837 103.681129 317.571597 103.645039 318.028315 103.466394 319.418329 103.668497 323.6335 102.7067 324.519859 103.31662 324.519859 105.559612 324.657055 105.812242 324.871875 106.05224 325.083085 106.189382 325.178762 106.151488 325.146268 106.474493 325.074059 106.750581 324.808693 107.461554 324.575821 107.903656 324.480144 108.340345 324.720238 108.780642 325.1228 108.930416 326.036237 108.876281 326.462267 109.105452 326.94787 108.921393 327.76202 108.863649 328.52382 108.970115 328.859589 109.235376 329.03289 109.435675 329.419205 109.340037 329.828989 109.110865 330.372357 108.692222 330.648555 108.832973 331.422991 109.8868 331.666695 110.112362 332.099946 110.281985 332.258804 110.426345 332.435715 110.53281 332.639704 110.577923 332.832862 110.482284 332.921317 110.281985 332.9845 110.074468 333.091007 109.982438 334.719309 110.056423 335.333081 110.375819 335.143534 111.144535 336.324143 111.801373 336.930694 112.001672 337.636532 112.075657 337.921755 112.20919 337.997574 112.801065 338.286408 112.932794 338.858661 112.974297 339.06626 113.066327 339.257613 113.228731 338.235862 113.746623 337.997574 114.13459 338.181706 114.726465 338.484982 114.94481 340.023023 115.614279 340.755939 115.655782 341.06463 115.448265 341.200021 114.854585 341.411231 114.524362 341.925716 114.535189 342.923999 114.726465 342.923999 114.430528 342.405903 114.201356 341.721727 113.439858 341.200021 113.228731 342.117069 112.761366 342.624334 112.617006 343.14604 112.635051 343.063 112.846178 343.005233 113.266626 342.923999 113.524669 343.689409 113.207077 344.662418 113.192641 345.584882 113.418204 346.178797 113.836848 346.390007 113.977598 348.675405 114.116545 348.962434 114.306017 348.962434 114.742706 348.772887 115.455483 348.606807 115.592625 347.489381 115.614279 347.489381 115.877736 348.083296 116.002246 350.195394 116.020291 350.733348 115.877736 350.733348 115.614279 350.469787 115.614279 350.258577 115.533076 349.856014 115.314732 350.1629 114.417896 350.24594 113.679856 350.469787 113.075349 351.164793 112.635051 351.51681 112.571894 353.659597 112.635051 353.917742 112.689186 354.397929 112.885877 354.746335 112.932794 355.082104 113.115048 355.231937 113.524669 355.29873 113.925268 355.405237 114.116545 356.551547 114.156244 356.83316 113.903614 356.36922 113.228731 356.533495 112.903922 356.519053 112.635051 356.537105 112.29761 356.793445 111.752652 357.091305 111.532503 358.095003 111.454909 358.723217 111.113859 359.378509 110.863034 359.764825 110.844989 360.535651 110.933409 360.894888 110.863034 361.371464 110.493111 361.867897 109.982438 362.470838 109.605298 363.290405 109.695523 363.620758 109.960784 363.754344 110.31988 363.828358 110.659125 363.956528 110.863034 364.290492 110.944236 364.900654 110.662734 365.241839 110.577923 365.030629 109.982438 366.343019 108.930416 366.539787 108.652523 366.472994 108.529817 366.31233 108.367412 366.166108 108.165308 366.110146 107.919896 366.176939 107.51208 366.281641 107.349675 366.406201 107.246818 366.539787 107.035692 366.82501 106.310283 366.758218 106.063067 363.720045 106.214645 363.528693 106.151488 363.597291 105.788783 364.079282 105.38638 364.916901 104.933451 365.615518 104.825181 365.907963 104.502176 366.05599 104.036615 366.332187 103.466394 366.843063 103.024291 367.33047 102.840232 367.693318 102.576776 367.933411 101.291973 368.162673 100.497993 368.503858 99.7473217 368.911836 99.2961971 369.532829 99.7834117 370.334343 99.994538 371.955424 99.9151401 371.962645 99.7473217 372.114283 99.422512 372.305635 99.2222126 372.392285 99.4604064 372.469909 99.5849168 372.661262 99.6516833 372.876082 99.6589013 373.054798 99.6210068 373.215462 99.422512 373.278645 98.8306364 373.372516 98.7079305 373.601778 98.7079305 373.729948 98.6790585 373.802156 98.5942471 374.944856 96.600276 375.002622 96.4829836 375.02248 96.4577206 375.062194 95.7539661 375.002622 95.7431391 375.414211 95.0592341 375.899813 94.6658534 376.405272 94.3735246 376.921563 93.9602944 377.647258 94.2652547 378.418084 94.0198429 379.226819 93.5903722 380.064438 93.3702233 380.160114 93.5145832 380.219686 93.8195435 380.344246 94.0487149 380.627664 93.9602944 380.781107 93.7906715 380.811796 93.6084172 380.790133 93.3792458 380.829848 93.0472181 380.820822 90.9882851 380.932745 90.6652798 381.172838 90.4848299 381.411126 90.0715997 381.732454 89.663783 382.25055 89.4797242 382.705463 89.4454387 383.062895 89.3191238 383.357145 89.1314559 383.649589 88.8860441 384.261556 87.9765768 384.631625 87.651767 385.061266 87.8340214 385.364541 87.8917653 386.900777 87.6896615 386.765386 88.1028917 386.689567 88.2616876 387.299729 88.1750716 387.436925 87.7672549 387.473029 87.2349278 387.765474 86.8054571 388.294401 86.6719242 388.377441 86.0998981 388.844991 85.578398 389.453347 85.3293772 390.170016 85.7480209 390.388447 85.4250156 390.695333 85.2932872 391.020272 85.3347907 391.236897 85.4033616 391.417418 85.4123841 391.679174 85.2932872 391.697226 85.1381003 391.64668 84.5841192 391.679174 84.4217143 391.803734 84.3675794 391.933709 84.3838199 392.070905 84.3838199 392.489714 84.0914911 391.85789 81.9838366 391.697226 80.8794834 392.190049 79.9700161 393.565621 78.4704776 394.204666 77.4491314 395.832968 76.0704944 396.537 75.287342 396.784315 74.7802778 397.04607 73.7986305 397.246449 73.2644989 397.594855 72.8729227 398.053379 72.5210455 398.410811 72.0554848 398.463162 71.2939863 397.964923 70.2257231 397.271722 69.5309911 396.879991 68.7117487 397.320463 67.2807813 396.336622 67.1111584 395.038674 67.9556638 394.127042 68.0242347 388.635586 69.6176071 387.35569 69.5742991 387.052415 69.5111416 386.75997 69.2260308 386.588475 68.8561086 386.377265 68.5367123 385.956651 68.376112 385.135279 68.2317521 384.535949 67.9881447 381.181864 65.9201892 379.9128 65.4510196 378.051626 64.4603498 377.652674 64.3484709 377.226644 64.3863654 376.852965 64.5072668 376.472065 64.5758377 376.053256 64.3935833 375.760812 64.0615556 375.616395 63.6808064 375.508082 63.2585537 375.309508 62.832692 375.011648 62.4862282 374.396071 62.0405171 374.110847 61.7481883 373.930326 61.407138 373.556647 60.5157157 373.309333 60.086245 372.612521 59.2651981 372.47713 59.0685077 372.365207 58.660691 372.374233 58.4405422 372.450052 58.1734764 372.717224 56.7984484 372.935654 56.4176991 373.993509 55.838455 373.172137 55.1419186 372.209959 54.1313993 371.504121 52.8935132 371.397613 51.5184852 371.744214 50.9302186 373.354463 49.690528 374.43037 47.8138494 374.881673 47.4800171 374.515215 46.5344598 374.744477 45.6430374 375.329366 44.928456 376.053256 44.5260527 376.634534 44.5170303 377.780844 44.859885 378.34046 44.8508625 378.156328 44.2698139 377.195955 42.4562927 377.075006 42.077348 376.903511 40.9838218 376.549689 40.018415 376.565936 39.9624756 376.732016 39.2677436 376.786172 39.2370671 376.775341 39.0223317 376.818666 38.9050393 376.824082 38.7606794 376.750068 38.5044406 376.623703 38.2842918 376.053256 37.6581307 374.47189 37.0085112 373.919495 36.9597897 372.365207 37.275577 371.765877 37.1221946 369.590596 35.857241 368.550793 34.9567962 368.000204 34.0256749 368.056165 31.5390757 367.855787 30.2632951 367.023584 29.6497655 365.920599 29.5595406 365.58483 29.2726253 365.20393 28.6139833 365.119085 28.2043621 365.158799 27.8524848 365.110059 27.5348931 364.593768 27.0873774 364.039568 26.242872 364.416857 25.7340034 364.989109 25.2576157 366.083068 24.6314547 366.366486 24.5809287 366.938739 24.6025827 367.189663 24.5574702 367.453224 24.4022833 368.027282 23.9655946 368.263765 23.8392797 369.37036 24.0215341 370.534722 24.6494996 371.6702 25.0500984 372.697366 24.5574702 372.765964 24.2795774 372.572807 24.0774736 372.432 23.8302572 372.590859 23.456726 372.841783 23.3448471 373.585531 23.3340201 373.868949 23.2672537 374.336499 22.84861 374.881673 21.8850077 375.291456 21.4934314 376.423324 20.9809538 377.53714 20.674189 377.78626 20.77885 378.177991 21.2552376 378.351291 21.3256131 378.560696 21.1072687 379.163637 20.008329 380.019307 19.284725 380.019307 18.5809705 379.683538 17.6859392 379.521069 16.3903091 379.683538 16.1196343 380.707093 14.8997932 381.362385 13.7304781 381.636778 13.0537911 381.676492 12.492592 381.425568 12.3031196 380.075269 11.711244 379.65646 11.3972613 379.398314 10.8883926 379.176273 10.328998 378.876608 9.83095639 377.493815 8.80419663 376.053256 7.99217222 375.816773 7.33713919 375.643473 5.47489654 375.517108 5.14467328 375.166897 4.61234617 375.107325 4.24603293 375.19578 3.8761107 375.558628 3.08393578 375.632641 2.82769696 375.443094 2.16183695 375.051363 1.88574865 374.026002 1.62590083 373.601778 1.30650456 372.886913 0.586509587 372.459078 0.440345193 371.639512 0.263504321 370.780231 -0.373483718 370.13938 -1.32625903 369.789169 -3.20113317 369.706129 -4.00593959 369.735013 -4.810746 369.897482 -5.55419946 370.30546 -6.21464598 370.792867 -6.51058377 371.726162 -6.64050768 371.726162 -6.71990562 371.818228 -6.91840047 371.955424 -7.12772232 372.103451 -7.25042823 372.22079 -7.23238325 372.47713 -7.06095587 372.590859 -7.03930189 372.811095 -7.08080536 373.594557 -7.07178286 374.273317 -7.27208222 374.988181 -7.63117746 375.62181 -8.17794056 376.053256 -8.89974004 376.253634 -9.51326959 376.51178 -10.0510102 376.845744 -10.4732629 377.295242 -10.6843892 377.075006 -11.0543115 376.903511 -11.5126541 376.679665 -12.3391145 376.320427 -13.2738449 376.204894 -13.759255 376.053256 -13.8675249 373.919495 -16.2765307 373.1938 -16.5905135 372.928433 -16.484048 372.706392 -16.2584857 372.459078 -16.0762313 372.163023 -16.1141258 371.885021 -16.3216432 371.870579 -16.4641986 371.933761 -16.6572799 371.913904 -17.0091572 371.962645 -17.0488561 371.955424 -17.5216348 371.895852 -17.9727595 371.811007 -17.9330605 371.955424 -18.1622318 372.209959 -18.4798236 372.432 -18.8190694 372.459078 -19.1745556 371.982502 -19.6419208 369.464231 -20.1922929 369.191644 -20.9537913 369.484088 -22.5146827 370.027457 -24.147754 371.152104 -26.3185659 370.428214 -27.5582565 369.310788 -28.7402032 368.704236 -29.7850079 368.877537 -30.310117 369.71335 -31.2935688 369.935391 -32.0568718 369.864988 -32.9230311 369.568933 -33.3705468 369.092357 -33.6105451 364.380753 -34.8249728 362.281291 -34.8971527 360.255843 -34.492945 357.558855 -32.6469428 356.533495 -32.379877 355.490082 -32.3311556 354.517073 -32.0171728 353.497128 -31.1293594 352.596327 -29.9419993 351.924788 -29.0361409 351.755098 -28.4153934 351.886878 -27.9570507 352.182933 -27.1847253 352.193764 -27.0060799 352.49704 -26.2554085 352.630626 -26.0533046 352.966395 -25.8818772 353.488102 -26.1272891 353.720974 -26.0316506 353.879833 -24.9760189 353.060266 -24.118882 351.040234 -22.772726 349.429984 -20.8906338 348.399208 -20.3619157 347.319691 -20.8401079 345.882742 -20.7913864 344.451209 -20.4485317 343.689409 -19.990189 344.108218 -20.9844678 344.348311 -21.4392015 344.451209 -21.8307777 343.893398 -22.5291187 343.56846 -23.1588887 343.682188 -23.6984338 344.451209 -24.1856485 346.346682 -25.1167698 346.397227 -25.1384238 346.512761 -25.1384238 346.760075 -25.0536123 346.949622 -25.0319583 347.130144 -25.0536123 347.828761 -25.2701522 347.958736 -25.56609 347.935268 -25.9937562 347.953321 -26.4791663 348.169946 -27.7766009 348.272843 -28.1284781 349.305425 -30.4165824 349.260294 -30.9236466 348.875784 -31.6147696 348.408234 -32.1110067 346.702308 -33.161225 347.063351 -33.5040797 347.119312 -33.8072355 347.063351 -34.1140003 347.063351 -34.4658775 347.034467 -34.6102374 346.962259 -34.7906873 346.895466 -35.0090316 346.895466 -35.2490299 347.021831 -35.5233137 347.381068 -35.91489 348.476832 -37.8042001 349.592453 -39.2026866 348.827043 -40.0598235 348.733172 -40.6679395 349.161008 -41.2219206 353.403257 -45.1142243 355.672409 -46.3503059 355.986515 -46.6137627 356.815108 -47.555711 357.865742 -48.1133011 358.201511 -48.3605174 358.546307 -48.8098376 358.674477 -49.1905868 358.667256 -49.9593033 358.427163 -50.2155421 358.264693 -50.4447134 358.167212 -50.7027567 358.219563 -50.9319281 358.712386 -52.426053 358.936232 -52.8176292 359.114948 -53.2669494 359.161884 -53.9075464 359.068013 -54.4110016 358.638372 -55.2103945 358.512008 -55.6308427 358.977752 -57.2512825 360.513988 -58.1372914 363.909592 -59.2037501 366.025301 -60.8133629 366.736555 -61.8491452 366.366486 -62.7116955 366.787101 -63.444322 367.083156 -63.7402598 367.882865 -64.0235661 368.000204 -64.3213084 368.113932 -64.3952928 368.570651 -64.6352911 368.532741 -65.4274661 369.476867 -65.7486668 371.543835 -67.666849 372.157608 -68.6557142 373.071045 -69.6012716 375.213832 -71.1802079 375.089273 -72.3242601 375.291456 -73.2770354 375.879956 -73.8941739 376.16879 -73.9248504 376.336674 -73.9898124 376.797003 -74.6213869 377.132773 -74.8108593 377.452295 -74.8956707 377.74835 -75.0887521 377.999275 -75.6012297 377.663505 -76.0685949 377.195955 -76.507088 376.72299 -76.8914463 376.138101 -76.604531 372.383259 -76.2382177 372.536702 -76.8318978 372.928433 -77.5573063 373.394178 -78.1654223 374.21555 -78.652637 374.26068 -79.5278189 375.089273 -79.7100732 375.605563 -80.0042065 376.071308 -80.4048052 376.309596 -80.7945769 376.161569 -81.359385 375.83302 -81.9963731 375.74998 -82.5196777 376.336674 -82.7019321 376.623703 -82.9220809 376.903511 -82.9870428 377.195955 -82.9220809 377.481179 -82.7019321 378.304356 -82.5756171 379.87489 -82.8517054 380.618638 -82.7019321 381.032032 -82.4601292 381.44723 -82.3951673 382.315538 -82.4817832 381.732454 -81.1590857 381.91117 -80.3975872 382.600761 -79.9861615 383.526835 -79.6902237 383.658616 -79.5855628 383.745266 -79.4249624 383.878851 -79.2499261 384.118945 -79.1452651 384.333765 -79.1939866 385.530621 -79.7100732 386.368239 -79.8887186 388.557962 -79.7948847 389.435295 -80.1449574 390.067119 -80.9678088 390.162796 -81.395475 390.114055 -81.6643453 389.962417 -81.8808852 389.85591 -81.9963731 389.69344 -82.2814839 389.69344 -82.5665947 390.056288 -82.6730601 390.552722 -82.4998282 390.958894 -82.2435894 391.372288 -82.1858454 391.85789 -82.6153161 391.904826 -82.7019321 391.953566 -82.8264425 391.953566 -82.9473439 391.926488 -83.0610273 391.697226 -83.3876416 391.625018 -83.5698959 391.668343 -83.7178648 391.85789 -83.8153077 392.182828 -83.7485413 392.439168 -83.8333527 392.574559 -84.102223 392.563728 -84.5695882 392.457221 -84.5605657 391.926488 -84.9719914 391.85789 -84.9972544 393.231657 -86.1214571 393.991651 -86.5491233 395.109077 -86.942504 395.038674 -86.949722 395.119909 -86.9803985 395.249884 -87.4459591 395.320287 -87.615582 395.249884 -88.0685112 395.087415 -88.3012915 394.890647 -88.4817414 394.695684 -88.7235442 393.98443 -90.1418802 393.55479 -90.7427782 393.08724 -90.9809721 392.96268 -91.1993164 392.859783 -91.7063805 392.776743 -92.7060728 392.888666 -92.9929881 393.412178 -93.5415557 393.590894 -93.8591475 393.614362 -94.6206459 393.21902 -96.2591307 393.303865 -96.9195773 393.755168 -98.4317472 393.924858 -98.662723 394.354499 -98.8900898 394.433928 -99.4151989 394.258822 -100.290381 394.271459 -100.501507 394.24077 -100.613386 394.231744 -100.737896 394.258822 -100.929173 394.354499 -101.138495 394.563903 -101.338795 394.695684 -101.567966 394.897868 -102.046158 394.955634 -102.25548 394.91953 -103.015174 395.078389 -103.643139 395.928644 -104.539975 396.222893 -105.101174 396.157906 -106.570036 394.793165 -108.980847 394.695684 -110.922487 394.897868 -111.839172 395.109077 -112.566385 395.334729 -112.98142 395.545939 -113.268335 395.704798 -113.641867 395.775201 -114.325772 395.988216 -114.899602 397.979365 -117.701989 398.311524 -118.387698 398.511903 -119.185287 398.578696 -120.148889 398.797126 -121.137754 399.309807 -121.558202 399.894695 -121.87399 400.324336 -122.570526 400.36044 -123.236386 400.197971 -123.862547 399.995787 -124.474272 399.894695 -125.046298 399.928994 -125.667046 400.161867 -126.924782 400.324336 -127.458913 400.542767 -127.911842 400.750366 -128.222216 400.902004 -128.678754 400.968797 -129.581004 401.131266 -130.010474 401.515776 -130.40205 402.306459 -131.031821 402.306459 -131.353021 401.930975 -132.365345 401.930975 -134.023679 402.203562 -135.577353 403.534004 -137.650722 403.907682 -137.919592 404.431194 -138.089215 404.918601 -138.513272 405.776077 -139.538227 406.155172 -139.785444 406.579397 -140.196869 406.907945 -140.644385 407.052362 -141.028743 407.090272 -141.940015 407.263572 -142.360463 407.611978 -142.486778 408.510974 -142.492192 408.751067 -142.575199 408.929783 -142.741213 408.996576 -142.997451 409.065174 -143.446772 409.216812 -143.70301 409.357619 -143.843761 409.424411 -143.962858 409.702414 -143.982708 410.866776 -144.601651 411.056323 -144.764056 411.448054 -145.428111 412.886809 -149.37455 413.870649 -151.238597 414.536773 -152.005509 414.163094 -152.346559 411.056323 -152.99257 406.05047 -155.663228 405.480022 -155.731799 403.680226 -155.540522 401.048226 -156.30202 400.701625 -156.204577 399.959683 -155.803979 399.569757 -155.697513 399.266482 -155.748039 398.596748 -155.986233 398.244731 -156.042172 397.853 -155.957361 397.479321 -155.803979 397.100227 -155.710145 396.663365 -155.803979 396.369116 -156.052999 396.060424 -156.682769 395.832968 -156.964271 395.13074 -157.330584 393.744337 -157.577801 393.060161 -158.005467 392.641352 -158.541403 391.926488 -159.689064 391.484211 -160.160038 391.541978 -160.322443 391.619602 -160.427104 391.85789 -160.576878 391.64668 -161.275219 391.076233 -161.48454 389.700661 -161.578374 389.570686 -162.114311 388.960524 -162.17025 388.216777 -161.944688 387.69146 -161.646945 387.539822 -161.408752 387.31056 -160.703193 387.151701 -160.436127 386.909803 -160.331466 386.274368 -160.24485 385.985534 -160.149211 385.786961 -159.914627 385.451191 -159.223504 385.272475 -159.032227 385.072097 -159.062903 384.221842 -159.463502 381.495971 -159.494178 380.999538 -159.654779 380.506715 -159.92004 379.293612 -160.800635 379.123922 -160.81868 378.838699 -160.53357 378.854945 -160.264699 378.961453 -160.017483 378.912712 -159.770267 377.939703 -159.160346 377.244696 -159.710718 376.881848 -161.028002 376.890874 -162.729645 376.21392 -162.760321 374.240823 -163.886328 373.887001 -163.931441 372.971758 -163.846629 371.648538 -164.144372 371.332626 -164.063169 371.152104 -163.400918 371.392198 -162.61957 371.504121 -161.816568 370.960752 -161.09116 370.563605 -160.997326 369.336061 -161.457473 367.920774 -161.477322 367.547095 -161.6289 367.149949 -162.303783 367.234794 -162.895658 367.400873 -163.507383 367.198689 -164.268882 367.061493 -164.268882 366.642684 -163.992794 366.501877 -163.97114 366.417032 -164.144372 366.35746 -164.525121 366.321356 -164.627977 366.214849 -164.839104 365.965729 -165.726917 365.835754 -165.867668 365.393477 -166.026464 365.223787 -166.152779 365.193098 -166.353078 365.254476 -166.838488 365.20393 -167.04781 363.109883 -169.067044 362.575541 -169.718468 362.373357 -170.277863 362.555683 -170.71816 363.109883 -170.747032 363.2543 -171.138608 363.147793 -171.423719 361.611557 -173.051377 361.391321 -173.377991 361.452698 -173.396036 361.438257 -173.673929 361.353412 -174.072723 361.16567 -174.473322 360.620496 -174.994822 357.721325 -176.443835 357.369308 -176.503383 357.107552 -176.404136 356.513637 -175.996319 356.177868 -175.931357 355.910697 -175.958424 355.271651 -176.023386 354.432228 -176.481729 352.870719 -177.654653 352.002412 -178.001117 351.107026 -178.091342 349.294593 -177.894652 349.496777 -177.445331 348.606807 -177.36052 348.377545 -177.270295 348.220492 -176.977966 348.220492 -176.662179 348.142868 -176.404136 347.760163 -176.263385 347.455082 -175.79602 346.985727 -175.622788 344.297766 -175.463992 343.748981 -175.274519 343.322951 -176.662179 342.716399 -177.263077 340.718029 -177.741269 339.916515 -178.111191 339.371341 -178.627278 338.371253 -179.949976 338.037289 -180.034787 338.010211 -180.045614 337.313399 -180.466062 336.970409 -180.522002 336.63825 -180.341552 336.224856 -179.798398 335.872839 -179.648624 335.836735 -179.628775 335.147144 -179.747872 334.468384 -180.085313 333.767962 -180.245913 333.75352 -180.245913 332.977279 -179.845315 332.594574 -179.331033 332.594574 -179.320206 332.525976 -178.977351 332.498898 -178.934043 332.421273 -178.787878 332.210064 -178.762615 331.955529 -178.722916 331.679331 -178.798705 330.690075 -179.255244 330.280292 -179.074794 330.097965 -178.988178 329.717065 -178.690435 329.307282 -178.36743 328.675458 -178.001117 328.485911 -177.894652 327.801735 -178.073297 327.644682 -178.407129 327.608577 -178.502768 327.639266 -178.934043 327.745773 -179.390581 327.745773 -179.892232 327.617603 -180.341552 326.095809 -183.095217 325.501895 -183.620326 324.519859 -183.98303 324.368221 -184.073255 324.169648 -184.19957 323.980101 -184.228442 323.965659 -184.228442 323.853736 -184.107541 323.718345 -183.83867 323.54685 -183.591454 323.492693 -183.573409 323.326614 -183.515665 322.804907 -183.620326 322.640633 -183.811603 322.640633 -183.817016 322.606334 -184.03897 322.57384 -184.257314 322.673127 -184.944828 322.673127 -184.955655 322.711036 -184.9737 322.925857 -185.114451 322.974597 -185.184826 323.070273 -185.287683 322.851843 -186.0167 322.241681 -186.763763 321.575558 -187.424209 321.194658 -187.411578 320.898603 -187.402555 320.391338 -187.26 319.46707 -187.003761 318.743179 -187.220301 318.161901 -187.649772 318.008458 -187.790522 317.694351 -188.099092 316.914499 -189.230512 316.351273 -190.051559 315.968568 -190.410655 315.715838 -190.491857 314.843921 -190.737269 314.217512 -191.099973 313.042319 -192.265679 312.527833 -192.538158 312.468261 -192.577857 312.146934 -192.559812 311.803943 -192.538158 311.184755 -192.319814 310.433787 -192.059966 309.90486 -191.975155 309.724339 -191.948087 309.220684 -192.013049 308.895746 -192.059966 308.895746 -192.072598 308.610523 -192.433498 308.619549 -193.279807 308.619549 -194.265064 308.54373 -194.539348 308.54373 -194.54837 308.229623 -195.062652 308.164635 -195.309868 308.215181 -195.607611 308.50582 -195.932421 308.525678 -195.98836 308.610523 -196.188659 308.646627 -196.342042 308.783823 -196.789557 308.857837 -196.977225 308.944487 -197.19557 309.020306 -197.616018 308.993228 -197.911956 308.960734 -198.256615 308.487768 -199.142624 308.473326 -199.153451 308.473326 -199.158864 307.603214 -199.51435 306.982221 -199.770589 306.97139 -199.770589 306.552581 -200.456299 306.696997 -201.237647 307.561694 -203.401241 307.902879 -204.269204 307.917321 -204.363038 307.935373 -204.792509 307.888438 -205.200326 307.917321 -205.516113 307.922737 -205.640623 308.088816 -206.01235 308.516652 -206.932645 308.516652 -206.947081 308.71703 -206.993997 309.041968 -206.631293 309.047384 -206.624075 309.09793 -207.125726 309.125008 -207.48843 309.294698 -208.497145 309.305529 -208.726316 309.334413 -209.365109 309.041968 -209.744053 308.058128 -209.540145 307.693475 -209.689919 307.561694 -210.384651 307.552668 -210.422545 306.702413 -210.034578 303.328471 -206.624075 303.146145 -206.232499 303.0613 -205.745284 303.120872 -205.535963 303.138924 -205.451151 303.184054 -205.344686 303.252652 -205.214762 303.274315 -205.050552 303.290562 -204.870103 303.205717 -204.354016 303.039637 -203.305602 302.824817 -202.524254 302.779687 -202.439443 302.539593 -201.963055 302.2995 -201.813282 302.194798 -201.742906 300.869772 -201.53178 299.772203 -200.981408 296.465054 -199.348337 295.533564 -199.178714 291.365329 -200.322766 290.552983 -200.550133 289.639546 -200.420209 288.135804 -200.20006 287.794619 -200.293894 287.709774 -200.322766 285.938861 -201.277346 285.956913 -201.277346 286.189785 -201.257496 286.166317 -201.705012 286.150071 -201.970273 286.067031 -202.351022 285.978575 -202.726358 285.834158 -202.780493 285.826938 -202.780493 285.960523 -203.361542 286.099525 -203.677329 286.113966 -203.717028 286.117577 -203.722441 286.348644 -204.011161 286.698855 -204.334166 286.928117 -204.554315 287.438992 -204.918824 287.657423 -205.068597 288.081648 -205.285137 288.419222 -205.451151 288.422833 -205.680322 288.422833 -205.770547 288.208013 -206.167537 288.094284 -206.430994 288.01666 -206.624075 287.484122 -208.74797 287.166405 -208.908571 286.832441 -208.852631 286.204227 -208.56752 286.005654 -208.661354 285.752924 -208.793083 285.816106 -209.529318 285.826938 -209.679092 286.211448 -210.920587 286.437099 -211.653213 286.603179 -212.550049 286.736765 -212.910949 286.747596 -212.950648 287.08156 -213.436058 287.834334 -214.015302 287.879464 -214.073046 288.139415 -214.368984 288.180934 -214.625222 288.217039 -214.883266 288.023881 -215.208076 287.628539 -215.549126 287.364978 -215.720553 287.207925 -215.817996 286.924507 -215.920853 286.532776 -215.75123 286.523749 -215.75123 286.511113 -215.435442 286.532776 -215.254992 286.554438 -215.090783 286.550828 -215.090783 286.465983 -215.005972 286.31615 -214.865221 285.929835 -215.045671 285.734872 -215.139505 285.077774 -216.563254 284.875591 -216.989116 284.87198 -216.999943 284.218493 -217.579187 283.785242 -217.830012 283.546954 -217.970763 282.498126 -219.131056 282.471048 -219.143687 281.880743 -219.428798 281.588299 -219.390904 281.21462 -219.353009 279.882373 -218.790005 279.201808 -218.504895 278.490555 -218.504895 278.355164 -218.562639 277.927328 -218.77196 277.620442 -218.977673 277.378544 -219.15271 276.730473 -219.484737 275.414473 -219.63812 274.037096 -219.544286 273.852964 -219.464888 273.60926 -219.378272 273.35292 -219.082334 272.784278 -218.124145 272.683186 -217.815576 272.650693 -217.710915 272.618199 -217.654976 272.564042 -217.561142 272.421431 -217.463699 272.369079 -217.514225 272.320339 -217.485353 272.195779 -217.160543 271.085573 -218.210761 270.811181 -220.219168 270.80396 -222.523513 270.538594 -224.4435 270.024109 -225.374621 269.3977 -225.97191 268.706304 -226.316569 267.989634 -226.471756 266.072499 -226.478974 265.949744 -226.478974 265.561624 -226.773108 265.554403 -226.773108 265.836016 -227.280172 265.863094 -227.327089 265.91364 -227.725883 265.706041 -227.983926 265.57065 -228.021821 265.251127 -228.121068 264.944241 -228.099414 264.801629 -228.090392 264.539874 -227.909942 264.478496 -227.868438 264.364768 -227.758364 264.168 -227.55626 264.052466 -227.469644 263.734749 -227.233255 262.651621 -226.832656 262.351956 -226.727995 262.059512 -226.686492 261.584741 -226.632357 261.032346 -226.785739 259.649553 -227.509343 259.230744 -227.830544 258.802909 -228.397156 258.739726 -228.469336 258.577257 -229.034145 258.523101 -230.614885 257.690898 -233.406445 257.434558 -234.84463 257.66382 -235.274101 257.87503 -235.676504 257.734223 -236.151087 257.519403 -236.865669 257.290141 -237.273486 257.261257 -237.322207 256.844253 -237.459349 256.844253 -237.464762 256.398366 -237.522506 256.147441 -237.818444 255.75571 -238.762197 255.407304 -239.402794 255.255666 -239.664446 254.793532 -240.494516 254.257384 -241.00158 253.605702 -241.201879 253.436012 -241.246992 251.916024 -240.774213 250.950235 -240.467448 250.625297 -240.375419 249.269582 -239.944144 248.879656 -239.696927 248.538471 -239.487605 248.260469 -239.182645 247.968024 -238.866858 247.569072 -238.181148 247.014872 -237.219351 246.596063 -236.894541 246.458867 -236.93424 246.166422 -236.991984 246.101435 -236.999202 246.003953 -237.044314 245.957018 -237.076795 243.749243 -238.08551 243.42972 -238.226261 243.258225 -238.372425 242.848442 -238.713475 242.785259 -238.836181 242.678752 -239.027458 242.254527 -240.03076 242.075811 -240.359178 241.944031 -240.487298 240.898813 -241.488794 240.691213 -241.858717 240.593732 -242.199767 240.588316 -242.199767 240.431263 -242.488487 240.016064 -242.705027 239.93844 -242.717658 239.716399 -242.735703 239.13151 -242.65811 238.871559 -242.668937 238.409425 -242.762771 238.218072 -242.849387 238.174747 -242.87104 238.006862 -243.156151 237.882303 -243.450285 237.737886 -243.784117 237.662067 -243.867124 237.593469 -243.946522 237.495987 -243.993439 237.210764 -244.137799 237.13314 -244.269527 237.111477 -244.307421 237.111477 -244.318248 237.125919 -244.422909 237.147581 -244.538397 237.38948 -245.099596 237.421974 -245.424406 237.116893 -246.499887 236.800981 -247.615068 236.981502 -248.071606 237.252284 -248.340476 237.714418 -248.797014 237.822731 -248.977464 237.896744 -249.101974 237.799263 -250.094449 237.297414 -250.846925 237.295609 -250.846925 236.170961 -252.093833 235.855049 -253.066458 235.800893 -253.45623 235.539137 -255.275164 235.486786 -255.408697"></polygon>
                        <g id="logotype" transform="translate(153.992316, 107.012136)" fill="#F44647">
                            <path d="M20.7218863,10.3613464 L19.5784852,10.0552137 L19.8495311,9.044451 L19.0456433,7.83091294 L16.4697175,11.7194952 L12.2046311,5.28097938 L10.1497708,8.38296835 L11.7224378,8.38296835 L7.72827684,12.038835 L7.72863693,12.0378789 L6.6757842,13.6272509 L5.54967719,11.9272952 L12.2046311,1.88106796 L16.4697175,8.31958378 L19.0456433,4.43100152 L21.4269584,8.02580216 L21.0845225,9.30278647 L22.5290805,9.68955058 L25.7005972,14.4772288 L24.5744902,16.1771845 L20.7218863,10.3613464 Z" id="Combined-Shape"></path>
                        </g>
                        <ellipse id="Oval" fill="#F44647" cx="169.429199" cy="123.565534" rx="1.50603732" ry="1.50485437"></ellipse>
                    </g>
                </g>
            </g>
        </g>
    </g>
</svg>